<svg width="375" height="265" viewBox="0 0 375 265" fill="none" xmlns="http://www.w3.org/2000/svg">
<path d="M5.31564 113.473L-152.946 125.442" stroke="#FEED14" stroke-width="0.6974" stroke-miterlimit="10"/>
<path d="M33.2639 116.024L-75.9515 124.284" stroke="#FEED14" stroke-width="0.6974" stroke-miterlimit="10"/>
<path d="M10.6225 122.402L-152.243 134.72" stroke="#FEED14" stroke-width="0.6974" stroke-miterlimit="10"/>
<path d="M22.8571 121.058L-423.206 154.794" stroke="#FF00A8" stroke-width="0.6016" stroke-miterlimit="10"/>
<path d="M389.402 96.3164L245.305 104.912" stroke="#FF009D" stroke-width="0.6974" stroke-miterlimit="10"/>
<path d="M414.783 99.0415L315.342 104.973" stroke="#FF009D" stroke-width="0.6974" stroke-miterlimit="10"/>
<path d="M394.099 104.514L245.81 113.359" stroke="#FF009D" stroke-width="0.6974" stroke-miterlimit="10"/>
<path d="M287.948 97.7485L149.079 106.032" stroke="#FF009D" stroke-width="0.6016" stroke-miterlimit="10"/>
<path d="M341.933 98.7671L40.4673 116.75" stroke="#FF009D" stroke-width="0.6016" stroke-miterlimit="10"/>
<path d="M373.589 101.118L40.7192 120.973" stroke="#FF009D" stroke-width="0.6016" stroke-miterlimit="10"/>
<path d="M405.245 103.469L-0.896659 127.695" stroke="#FF009D" stroke-width="0.6016" stroke-miterlimit="10"/>
<path d="M342.689 111.437L72.6285 127.546" stroke="#FF009D" stroke-width="0.6016" stroke-miterlimit="10"/>
<path d="M171.274 125.9L72.8794 131.77" stroke="#FF009D" stroke-width="0.6016" stroke-miterlimit="10"/>
<path d="M313.186 121.674L125.469 132.872" stroke="#FF009D" stroke-width="0.6016" stroke-miterlimit="10"/>
<path d="M155.153 119.173L111.913 121.753" stroke="#00FFFB" stroke-width="0.5358" stroke-miterlimit="10"/>
<path d="M149.125 123.771L55.8664 129.334" stroke="#00FFFB" stroke-width="0.5358" stroke-miterlimit="10"/>
<path d="M149.379 127.994L73.7395 132.506" stroke="#00FFFB" stroke-width="0.5358" stroke-miterlimit="10"/>
<path d="M216.736 136.69L134.392 141.602" stroke="#00FFFB" stroke-width="0.5358" stroke-miterlimit="10"/>
<path d="M287.915 132.445L273.959 133.277" stroke="#00FFFB" stroke-width="0.5358" stroke-miterlimit="10"/>
<path d="M18.1487 118.264L-13.9518 120.179" stroke="#FF009D" stroke-width="0.6016" stroke-miterlimit="10"/>
</svg>
