<svg width="22" height="20" viewBox="0 0 22 20" fill="none" xmlns="http://www.w3.org/2000/svg">
<g clip-path="url(#clip0_231_1371)">
<path d="M11 20C16.8188 20 21.5 15.5417 21.5 10C21.5 4.4583 16.8188 0 11 0C5.18122 0 0.5 4.4583 0.5 10C0.5 15.5417 5.18122 20 11 20Z" fill="#2775CA"/>
<path d="M13.8875 11.5835C13.8875 10.1252 12.9687 9.6252 11.1312 9.4169C9.81874 9.2502 9.55624 8.9169 9.55624 8.3335C9.55624 7.7501 9.99377 7.3752 10.8687 7.3752C11.6562 7.3752 12.0938 7.6252 12.3125 8.2502C12.3563 8.3752 12.4875 8.4585 12.6188 8.4585H13.3187C13.4937 8.4585 13.625 8.3335 13.625 8.1669V8.1252C13.45 7.2085 12.6625 6.5002 11.6562 6.4169V5.4169C11.6562 5.2502 11.525 5.1252 11.3063 5.0835H10.65C10.475 5.0835 10.3437 5.2085 10.3 5.4169V6.3752C8.98745 6.5419 8.15627 7.3752 8.15627 8.4169C8.15627 9.7919 9.03124 10.3335 10.8687 10.5419C12.0938 10.7502 12.4875 11.0002 12.4875 11.6669C12.4875 12.3336 11.875 12.7919 11.0438 12.7919C9.9062 12.7919 9.51245 12.3335 9.3812 11.7085C9.33752 11.5419 9.20627 11.4585 9.07502 11.4585H8.3312C8.15627 11.4585 8.02502 11.5835 8.02502 11.7502V11.7919C8.19995 12.8335 8.89999 13.5835 10.3437 13.7919V14.7919C10.3437 14.9585 10.475 15.0835 10.6937 15.1252H11.35C11.525 15.1252 11.6562 15.0002 11.7 14.7919V13.7919C13.0125 13.5835 13.8875 12.7085 13.8875 11.5835Z" fill="white"/>
<path d="M8.76875 15.9581C5.35625 14.7915 3.60621 11.1665 4.87503 7.9581C5.53128 6.2081 6.97503 4.8748 8.76875 4.2498C8.94378 4.1665 9.03125 4.0415 9.03125 3.8331V3.2498C9.03125 3.0831 8.94378 2.9581 8.76875 2.9165C8.72496 2.9165 8.6375 2.9165 8.59371 2.9581C4.4375 4.2081 2.16246 8.4165 3.47496 12.3748C4.26246 14.7081 6.14375 16.4998 8.59371 17.2498C8.76875 17.3331 8.94378 17.2498 8.98746 17.0831C9.03125 17.0415 9.03125 16.9998 9.03125 16.9165V16.3331C9.03125 16.2081 8.9 16.0415 8.76875 15.9581ZM13.4063 2.9581C13.2312 2.8748 13.0562 2.9581 13.0125 3.1248C12.9687 3.1665 12.9687 3.2081 12.9687 3.2915V3.8748C12.9687 4.0415 13.1 4.2081 13.2312 4.2915C16.6437 5.4581 18.3938 9.0831 17.125 12.2915C16.4687 14.0415 15.025 15.3748 13.2312 15.9998C13.0562 16.0831 12.9687 16.2081 12.9687 16.4165V16.9998C12.9687 17.1665 13.0562 17.2915 13.2312 17.3331C13.275 17.3331 13.3625 17.3331 13.4063 17.2915C17.5625 16.0415 19.8375 11.8331 18.525 7.8748C17.7375 5.4998 15.8125 3.7081 13.4063 2.9581Z" fill="white"/>
</g>
<defs>
<clipPath id="clip0_231_1371">
<rect width="21" height="20" fill="white" transform="translate(0.5)"/>
</clipPath>
</defs>
</svg>
