<svg width="1029" height="353" viewBox="0 0 1029 353" fill="none" xmlns="http://www.w3.org/2000/svg">
<path d="M458.447 119.857L468.241 121.879" stroke="#00FFFB" stroke-width="0.5358" stroke-miterlimit="10"/>
<path d="M871.166 231.387L1061.48 270.672" stroke="#FF0062" stroke-width="0.6974" stroke-miterlimit="10"/>
<path d="M895.154 240.459L1060.66 274.624" stroke="#FF0062" stroke-width="0.6974" stroke-miterlimit="10"/>
<path d="M869.533 239.29L1059.85 278.576" stroke="#FF0062" stroke-width="0.6974" stroke-miterlimit="10"/>
<path d="M868.719 243.24L1059.04 282.526" stroke="#FF0062" stroke-width="0.6974" stroke-miterlimit="10"/>
<path d="M867.902 247.192L1058.22 286.478" stroke="#FF0062" stroke-width="0.6974" stroke-miterlimit="10"/>
<path d="M843.578 246.292L1057.4 290.43" stroke="#FF0062" stroke-width="0.6974" stroke-miterlimit="10"/>
<path d="M862.349 254.286L1056.59 294.381" stroke="#FF0062" stroke-width="0.6974" stroke-miterlimit="10"/>
<path d="M816.484 248.938L1055.77 298.333" stroke="#FF0062" stroke-width="0.6974" stroke-miterlimit="10"/>
<path d="M829.379 255.721L1054.95 302.285" stroke="#FF0062" stroke-width="0.6974" stroke-miterlimit="10"/>
<path d="M839.662 261.962L1054.14 306.235" stroke="#FF0062" stroke-width="0.6974" stroke-miterlimit="10"/>
<path d="M601.416 159.343L896.855 220.328" stroke="#9021E2" stroke-width="0.6974" stroke-miterlimit="10"/>
<path d="M618.232 166.923L913.672 227.908" stroke="#9021E2" stroke-width="0.6974" stroke-miterlimit="10"/>
<path d="M599.783 167.246L895.222 228.231" stroke="#9021E2" stroke-width="0.6974" stroke-miterlimit="10"/>
<path d="M598.969 171.196L894.408 232.182" stroke="#9021E2" stroke-width="0.6974" stroke-miterlimit="10"/>
<path d="M598.152 175.147L893.591 236.133" stroke="#9021E2" stroke-width="0.6974" stroke-miterlimit="10"/>
<path d="M657.748 183.248L953.187 244.233" stroke="#9021E2" stroke-width="0.6974" stroke-miterlimit="10"/>
<path d="M642.248 184.134L937.687 245.119" stroke="#9021E2" stroke-width="0.6974" stroke-miterlimit="10"/>
<path d="M656.115 191.151L951.554 252.137" stroke="#9021E2" stroke-width="0.6974" stroke-miterlimit="10"/>
<path d="M658.803 202.867L954.242 263.853" stroke="#9021E2" stroke-width="0.6974" stroke-miterlimit="10"/>
<path d="M765.898 210.369L1061.34 271.355" stroke="#9021E2" stroke-width="0.6974" stroke-miterlimit="10"/>
<path d="M765.084 214.32L1060.52 275.306" stroke="#9021E2" stroke-width="0.6974" stroke-miterlimit="10"/>
<path d="M685.922 202.1L1059.71 279.258" stroke="#9021E2" stroke-width="0.6974" stroke-miterlimit="10"/>
<path d="M775.859 224.785L1058.89 283.21" stroke="#9021E2" stroke-width="0.6974" stroke-miterlimit="10"/>
<path d="M762.637 226.175L1058.08 287.16" stroke="#9021E2" stroke-width="0.6974" stroke-miterlimit="10"/>
<path d="M740.277 225.68L1057.26 291.112" stroke="#9021E2" stroke-width="0.6974" stroke-miterlimit="10"/>
<path d="M776.676 237.313L1056.44 295.064" stroke="#9021E2" stroke-width="0.6974" stroke-miterlimit="10"/>
<path d="M760.189 238.028L1055.63 299.014" stroke="#9021E2" stroke-width="0.6974" stroke-miterlimit="10"/>
<path d="M729.344 235.781L1054.81 302.966" stroke="#9021E2" stroke-width="0.6974" stroke-miterlimit="10"/>
<path d="M851.273 265.071L1054 306.919" stroke="#9021E2" stroke-width="0.6974" stroke-miterlimit="10"/>
<path d="M315.846 116.199L516.286 157.575" stroke="#FF73BC" stroke-width="0.5358" stroke-miterlimit="10"/>
<path d="M339.185 125.138L539.627 166.513" stroke="#FF73BC" stroke-width="0.5358" stroke-miterlimit="10"/>
<path d="M338.371 129.09L517.266 166.018" stroke="#FF73BC" stroke-width="0.5358" stroke-miterlimit="10"/>
<path d="M298.381 124.953L545.178 175.898" stroke="#FF73BC" stroke-width="0.5358" stroke-miterlimit="10"/>
<path d="M336.74 136.991L537.181 178.367" stroke="#FF73BC" stroke-width="0.5358" stroke-miterlimit="10"/>
<path d="M335.924 140.943L552.034 185.554" stroke="#FF73BC" stroke-width="0.5358" stroke-miterlimit="10"/>
<path d="M458.564 181.61L659.005 222.986" stroke="#FF73BC" stroke-width="0.5358" stroke-miterlimit="10"/>
<path d="M457.75 185.562L635.34 222.221" stroke="#FF73BC" stroke-width="0.5358" stroke-miterlimit="10"/>
<path d="M456.933 189.514L657.375 230.889" stroke="#FF73BC" stroke-width="0.5358" stroke-miterlimit="10"/>
<path d="M456.117 193.466L645.459 232.55" stroke="#FF73BC" stroke-width="0.5358" stroke-miterlimit="10"/>
<path d="M435.715 193.373L655.743 238.792" stroke="#FF73BC" stroke-width="0.5358" stroke-miterlimit="10"/>
<path d="M454.486 201.368L679.737 247.865" stroke="#FF73BC" stroke-width="0.5358" stroke-miterlimit="10"/>
<path d="M453.67 205.319L654.111 246.695" stroke="#FF73BC" stroke-width="0.5358" stroke-miterlimit="10"/>
<path d="M452.855 209.271L641.544 248.22" stroke="#FF73BC" stroke-width="0.5358" stroke-miterlimit="10"/>
<path d="M452.039 213.222L621.794 248.263" stroke="#FF73BC" stroke-width="0.5358" stroke-miterlimit="10"/>
<path d="M472.117 221.486L662.111 260.705" stroke="#FF73BC" stroke-width="0.5358" stroke-miterlimit="10"/>
<path d="M450.408 221.124L650.849 262.5" stroke="#FF73BC" stroke-width="0.5358" stroke-miterlimit="10"/>
<path d="M449.592 225.076L650.033 266.452" stroke="#FF73BC" stroke-width="0.5358" stroke-miterlimit="10"/>
<path d="M420.703 223.232L663.582 273.368" stroke="#FF73BC" stroke-width="0.5358" stroke-miterlimit="10"/>
<path d="M488.037 140.399L602.621 164.052" stroke="#00FFFB" stroke-width="0.5358" stroke-miterlimit="10"/>
<path d="M503.857 147.785L750.991 198.799" stroke="#00FFFB" stroke-width="0.5358" stroke-miterlimit="10"/>
<path d="M503.043 151.736L703.484 193.112" stroke="#00FFFB" stroke-width="0.5358" stroke-miterlimit="10"/>
<path d="M601.478 176.175L706.586 197.871" stroke="#00FFFB" stroke-width="0.5358" stroke-miterlimit="10"/>
<path d="M488.037 156.878L701.852 201.014" stroke="#00FFFB" stroke-width="0.5358" stroke-miterlimit="10"/>
<path d="M500.596 163.59L772.54 219.725" stroke="#00FFFB" stroke-width="0.5358" stroke-miterlimit="10"/>
<path d="M558.545 179.672L758.986 221.047" stroke="#00FFFB" stroke-width="0.5358" stroke-miterlimit="10"/>
<path d="M462.086 163.881L699.405 212.869" stroke="#00FFFB" stroke-width="0.5358" stroke-miterlimit="10"/>
<path d="M498.148 175.444L698.59 216.82" stroke="#00FFFB" stroke-width="0.5358" stroke-miterlimit="10"/>
<path d="M485.582 176.969L686.023 218.344" stroke="#00FFFB" stroke-width="0.5358" stroke-miterlimit="10"/>
<path d="M434.83 170.613L696.96 224.723" stroke="#00FFFB" stroke-width="0.5358" stroke-miterlimit="10"/>
<path d="M495.701 187.298L642.289 217.557" stroke="#00FFFB" stroke-width="0.5358" stroke-miterlimit="10"/>
<path d="M469.109 185.929L695.329 232.626" stroke="#00FFFB" stroke-width="0.5358" stroke-miterlimit="10"/>
<path d="M494.07 195.201L760.139 250.124" stroke="#00FFFB" stroke-width="0.5358" stroke-miterlimit="10"/>
<path d="M507.303 202.052L754.099 252.996" stroke="#00FFFB" stroke-width="0.5358" stroke-miterlimit="10"/>
<path d="M699.855 260.214L919.23 305.498" stroke="#00FFFB" stroke-width="0.5358" stroke-miterlimit="10"/>
<path d="M48.9999 71.1006L135.502 88.9566" stroke="#2200C9" stroke-width="0.6974" stroke-miterlimit="10"/>
<path d="M81.4823 81.9248L181.697 102.611" stroke="#2200C9" stroke-width="0.6974" stroke-miterlimit="10"/>
<path d="M106.135 91.1338L208.303 112.224" stroke="#2200C9" stroke-width="0.6974" stroke-miterlimit="10"/>
<path d="M105.318 95.0852L239.149 122.711" stroke="#2200C9" stroke-width="0.6974" stroke-miterlimit="10"/>
<path d="M104.502 99.0361L219.075 122.687" stroke="#2200C9" stroke-width="0.6974" stroke-miterlimit="10"/>
<path d="M65.8124 95.1699L256.128 134.455" stroke="#2200C9" stroke-width="0.6974" stroke-miterlimit="10"/>
<path d="M381.863 156.878L295.361 139.021" stroke="#FF0062" stroke-width="0.6974" stroke-miterlimit="10"/>
<path d="M349.382 146.054L249.168 125.367" stroke="#FF0062" stroke-width="0.6974" stroke-miterlimit="10"/>
<path d="M324.73 136.845L222.562 115.755" stroke="#FF0062" stroke-width="0.6974" stroke-miterlimit="10"/>
<path d="M325.546 132.893L191.715 105.268" stroke="#FF0062" stroke-width="0.6974" stroke-miterlimit="10"/>
<path d="M202.904 92.227L17.4843 53.9521" stroke="#FF0062" stroke-width="0.6974" stroke-miterlimit="10"/>
<path d="M241.595 96.0931L51.2792 56.8076" stroke="#FF0062" stroke-width="0.6974" stroke-miterlimit="10"/>
<path d="M368.523 155.501L288.154 138.911" stroke="#FFFE1F" stroke-width="0.6016" stroke-miterlimit="10"/>
<path d="M400.435 157.969L225.967 121.955" stroke="#FFFE1F" stroke-width="0.6016" stroke-miterlimit="10"/>
<path d="M419.427 157.77L226.783 118.004" stroke="#FFFE1F" stroke-width="0.6016" stroke-miterlimit="10"/>
<path d="M438.416 157.57L203.367 109.051" stroke="#FFFE1F" stroke-width="0.6016" stroke-miterlimit="10"/>
<path d="M402.882 146.115L246.588 113.853" stroke="#FFFE1F" stroke-width="0.6016" stroke-miterlimit="10"/>
<path d="M860.824 172.284L879.758 176.193" stroke="#FF73BC" stroke-width="0.5358" stroke-miterlimit="10"/>
<path d="M502.848 129.022L521.781 132.931" stroke="#00FFFB" stroke-width="0.5358" stroke-miterlimit="10"/>
</svg>
