<svg width="1440" height="264" viewBox="0 0 1440 264" fill="none" xmlns="http://www.w3.org/2000/svg">
<path d="M-43.6115 58.4365L148.155 77.4217" stroke="#FEED14" stroke-width="0.6974" stroke-miterlimit="10"/>
<path d="M-77.6094 60.7471L54.7277 73.8486" stroke="#FEED14" stroke-width="0.6974" stroke-miterlimit="10"/>
<path d="M-50.3048 69.126L147.04 88.6635" stroke="#FEED14" stroke-width="0.6974" stroke-miterlimit="10"/>
<path d="M91.6464 65.6416L276.454 83.9379" stroke="#FEED14" stroke-width="0.6016" stroke-miterlimit="10"/>
<path d="M19.58 64.1836L420.773 103.902" stroke="#FEED14" stroke-width="0.6016" stroke-miterlimit="10"/>
<path d="M-22.7697 65.667L420.217 109.523" stroke="#FEED14" stroke-width="0.6016" stroke-miterlimit="10"/>
<path d="M-65.1193 67.1504L475.379 120.661" stroke="#FEED14" stroke-width="0.6016" stroke-miterlimit="10"/>
<path d="M17.912 81.0439L377.312 116.625" stroke="#FEED14" stroke-width="0.6016" stroke-miterlimit="10"/>
<path d="M245.81 109.282L376.754 122.246" stroke="#FEED14" stroke-width="0.6016" stroke-miterlimit="10"/>
<path d="M56.7303 96.2393L306.546 120.971" stroke="#FEED14" stroke-width="0.6016" stroke-miterlimit="10"/>
<path d="M267.666 101.149L325.21 106.846" stroke="#00FFFB" stroke-width="0.5358" stroke-miterlimit="10"/>
<path d="M275.465 107.598L399.574 119.885" stroke="#00FFFB" stroke-width="0.5358" stroke-miterlimit="10"/>
<path d="M274.91 113.217L375.571 123.182" stroke="#00FFFB" stroke-width="0.5358" stroke-miterlimit="10"/>
<path d="M184.603 121.303L294.188 132.152" stroke="#00FFFB" stroke-width="0.5358" stroke-miterlimit="10"/>
<path d="M89.8787 111.925L108.452 113.764" stroke="#00FFFB" stroke-width="0.5358" stroke-miterlimit="10"/>
<path d="M450.467 107.086L493.186 111.315" stroke="#FEED14" stroke-width="0.6016" stroke-miterlimit="10"/>
<path d="M871.6 100.001L881.545 101.052" stroke="#00FFFB" stroke-width="0.5358" stroke-miterlimit="10"/>
<path d="M1293.27 170.496L1486.53 190.918" stroke="#FF0062" stroke-width="0.6974" stroke-miterlimit="10"/>
<path d="M1318.03 177.171L1486.1 194.931" stroke="#FF0062" stroke-width="0.6974" stroke-miterlimit="10"/>
<path d="M1292.42 178.521L1485.68 198.943" stroke="#FF0062" stroke-width="0.6974" stroke-miterlimit="10"/>
<path d="M1292 182.533L1485.25 202.955" stroke="#FF0062" stroke-width="0.6974" stroke-miterlimit="10"/>
<path d="M1291.58 186.546L1484.83 206.968" stroke="#FF0062" stroke-width="0.6974" stroke-miterlimit="10"/>
<path d="M1267.28 188.037L1484.4 210.982" stroke="#FF0062" stroke-width="0.6974" stroke-miterlimit="10"/>
<path d="M1286.74 194.15L1483.98 214.993" stroke="#FF0062" stroke-width="0.6974" stroke-miterlimit="10"/>
<path d="M1240.58 193.329L1483.55 219.006" stroke="#FF0062" stroke-width="0.6974" stroke-miterlimit="10"/>
<path d="M1254.07 198.813L1483.13 223.019" stroke="#FF0062" stroke-width="0.6974" stroke-miterlimit="10"/>
<path d="M1264.92 204.015L1482.71 227.03" stroke="#FF0062" stroke-width="0.6974" stroke-miterlimit="10"/>
<path d="M1017.75 125.267L1317.75 156.97" stroke="#9021E2" stroke-width="0.6974" stroke-miterlimit="10"/>
<path d="M1035.23 131.161L1335.23 162.863" stroke="#9021E2" stroke-width="0.6974" stroke-miterlimit="10"/>
<path d="M1016.91 133.293L1316.9 164.995" stroke="#9021E2" stroke-width="0.6974" stroke-miterlimit="10"/>
<path d="M1016.48 137.303L1316.48 169.006" stroke="#9021E2" stroke-width="0.6974" stroke-miterlimit="10"/>
<path d="M1016.06 141.316L1316.06 173.019" stroke="#9021E2" stroke-width="0.6974" stroke-miterlimit="10"/>
<path d="M1076.16 143.531L1376.16 175.233" stroke="#9021E2" stroke-width="0.6974" stroke-miterlimit="10"/>
<path d="M1060.82 145.932L1360.82 177.635" stroke="#9021E2" stroke-width="0.6974" stroke-miterlimit="10"/>
<path d="M1075.31 151.555L1375.31 183.258" stroke="#9021E2" stroke-width="0.6974" stroke-miterlimit="10"/>
<path d="M1079.14 162.951L1379.13 194.653" stroke="#9021E2" stroke-width="0.6974" stroke-miterlimit="10"/>
<path d="M1186.45 159.909L1486.45 191.611" stroke="#9021E2" stroke-width="0.6974" stroke-miterlimit="10"/>
<path d="M1186.03 163.921L1486.02 195.623" stroke="#9021E2" stroke-width="0.6974" stroke-miterlimit="10"/>
<path d="M1106.05 159.527L1485.6 199.637" stroke="#9021E2" stroke-width="0.6974" stroke-miterlimit="10"/>
<path d="M1197.78 173.278L1485.18 203.649" stroke="#9021E2" stroke-width="0.6974" stroke-miterlimit="10"/>
<path d="M1184.75 175.959L1484.75 207.661" stroke="#9021E2" stroke-width="0.6974" stroke-miterlimit="10"/>
<path d="M1162.45 177.66L1484.33 211.674" stroke="#9021E2" stroke-width="0.6974" stroke-miterlimit="10"/>
<path d="M1199.82 185.666L1483.9 215.687" stroke="#9021E2" stroke-width="0.6974" stroke-miterlimit="10"/>
<path d="M1183.48 187.995L1483.48 219.697" stroke="#9021E2" stroke-width="0.6974" stroke-miterlimit="10"/>
<path d="M1152.57 188.785L1483.06 223.71" stroke="#9021E2" stroke-width="0.6974" stroke-miterlimit="10"/>
<path d="M1276.78 205.97L1482.63 227.724" stroke="#9021E2" stroke-width="0.6974" stroke-miterlimit="10"/>
<path d="M677.039 91.6113L880.572 113.12" stroke="#FF73BC" stroke-width="0.5358" stroke-miterlimit="10"/>
<path d="M701.143 98.2168L904.676 119.725" stroke="#FF73BC" stroke-width="0.5358" stroke-miterlimit="10"/>
<path d="M700.719 102.229L882.374 121.426" stroke="#FF73BC" stroke-width="0.5358" stroke-miterlimit="10"/>
<path d="M660.518 102.036L911.122 128.519" stroke="#FF73BC" stroke-width="0.5358" stroke-miterlimit="10"/>
<path d="M699.871 110.253L903.405 131.761" stroke="#FF73BC" stroke-width="0.5358" stroke-miterlimit="10"/>
<path d="M699.447 114.266L918.892 137.456" stroke="#FF73BC" stroke-width="0.5358" stroke-miterlimit="10"/>
<path d="M825.486 142.703L1029.02 164.212" stroke="#FF73BC" stroke-width="0.5358" stroke-miterlimit="10"/>
<path d="M825.062 146.716L1005.39 165.772" stroke="#FF73BC" stroke-width="0.5358" stroke-miterlimit="10"/>
<path d="M804.764 149.929L1008.3 171.437" stroke="#FF73BC" stroke-width="0.5358" stroke-miterlimit="10"/>
<path d="M824.215 154.741L1016.48 175.059" stroke="#FF73BC" stroke-width="0.5358" stroke-miterlimit="10"/>
<path d="M803.902 156.65L1027.33 180.261" stroke="#FF73BC" stroke-width="0.5358" stroke-miterlimit="10"/>
<path d="M823.367 162.766L1052.09 186.936" stroke="#FF73BC" stroke-width="0.5358" stroke-miterlimit="10"/>
<path d="M788.764 163.929L992.297 185.437" stroke="#FF73BC" stroke-width="0.5358" stroke-miterlimit="10"/>
<path d="M774.764 165.929L966.364 186.176" stroke="#FF73BC" stroke-width="0.5358" stroke-miterlimit="10"/>
<path d="M822.096 174.802L994.47 193.017" stroke="#FF73BC" stroke-width="0.5358" stroke-miterlimit="10"/>
<path d="M909.764 188.929L1102.69 209.316" stroke="#FF73BC" stroke-width="0.5358" stroke-miterlimit="10"/>
<path d="M821.246 182.826L1024.78 204.335" stroke="#FF73BC" stroke-width="0.5358" stroke-miterlimit="10"/>
<path d="M802.764 183.929L1006.3 205.437" stroke="#FF73BC" stroke-width="0.5358" stroke-miterlimit="10"/>
<path d="M791.893 187.839L1038.52 213.901" stroke="#FF73BC" stroke-width="0.5358" stroke-miterlimit="10"/>
<path d="M901.012 127.871L1017.36 140.167" stroke="#00FFFB" stroke-width="0.5358" stroke-miterlimit="10"/>
<path d="M917.481 133.669L1168.43 160.188" stroke="#00FFFB" stroke-width="0.5358" stroke-miterlimit="10"/>
<path d="M917.057 137.682L1120.59 159.19" stroke="#00FFFB" stroke-width="0.5358" stroke-miterlimit="10"/>
<path d="M1017.42 152.344L1124.14 163.622" stroke="#00FFFB" stroke-width="0.5358" stroke-miterlimit="10"/>
<path d="M902.629 144.271L1119.74 167.214" stroke="#00FFFB" stroke-width="0.5358" stroke-miterlimit="10"/>
<path d="M915.785 149.718L1191.93 178.899" stroke="#00FFFB" stroke-width="0.5358" stroke-miterlimit="10"/>
<path d="M975.033 160.036L1178.57 181.545" stroke="#00FFFB" stroke-width="0.5358" stroke-miterlimit="10"/>
<path d="M877.49 153.786L1118.47 179.252" stroke="#00FFFB" stroke-width="0.5358" stroke-miterlimit="10"/>
<path d="M914.514 161.755L1118.05 183.263" stroke="#00FFFB" stroke-width="0.5358" stroke-miterlimit="10"/>
<path d="M902.156 164.506L1105.69 186.014" stroke="#00FFFB" stroke-width="0.5358" stroke-miterlimit="10"/>
<path d="M851.026 163.16L1117.2 191.288" stroke="#00FFFB" stroke-width="0.5358" stroke-miterlimit="10"/>
<path d="M913.24 173.792L1062.09 189.522" stroke="#00FFFB" stroke-width="0.5358" stroke-miterlimit="10"/>
<path d="M886.643 175.038L1116.35 199.313" stroke="#00FFFB" stroke-width="0.5358" stroke-miterlimit="10"/>
<path d="M912.393 181.817L1182.57 210.368" stroke="#00FFFB" stroke-width="0.5358" stroke-miterlimit="10"/>
<path d="M926.232 187.337L1176.84 213.82" stroke="#00FFFB" stroke-width="0.5358" stroke-miterlimit="10"/>
<path d="M1123.56 226.324L1346.32 249.864" stroke="#00FFFB" stroke-width="0.5358" stroke-miterlimit="10"/>
<path d="M457.291 101.984L545.128 111.267" stroke="#00FFFB" stroke-width="0.6974" stroke-miterlimit="10"/>
<path d="M490.678 109.569L592.438 120.323" stroke="#00FFFB" stroke-width="0.6974" stroke-miterlimit="10"/>
<path d="M516.115 116.314L619.86 127.278" stroke="#00FFFB" stroke-width="0.6974" stroke-miterlimit="10"/>
<path d="M515.691 120.327L651.588 134.688" stroke="#00FFFB" stroke-width="0.6974" stroke-miterlimit="10"/>
<path d="M515.268 124.339L631.609 136.633" stroke="#00FFFB" stroke-width="0.6974" stroke-miterlimit="10"/>
<path d="M476.385 124.287L669.637 144.709" stroke="#00FFFB" stroke-width="0.6974" stroke-miterlimit="10"/>
<path d="M783.554 154.627L701.945 146.003" stroke="#FFFE1F" stroke-width="0.6016" stroke-miterlimit="10"/>
<path d="M815.555 153.952L638.395 135.23" stroke="#FFFE1F" stroke-width="0.6016" stroke-miterlimit="10"/>
<path d="M834.434 151.89L638.818 131.218" stroke="#FFFE1F" stroke-width="0.6016" stroke-miterlimit="10"/>
<path d="M853.314 149.828L614.639 124.605" stroke="#FFFE1F" stroke-width="0.6016" stroke-miterlimit="10"/>
<path d="M816.826 141.916L658.121 125.145" stroke="#FFFE1F" stroke-width="0.6016" stroke-miterlimit="10"/>
</svg>
