<svg width="375" height="222" viewBox="0 0 375 222" fill="none" xmlns="http://www.w3.org/2000/svg">
<path d="M51.92 71.5544L202.546 73.591" stroke="#FEED14" stroke-width="0.6974" stroke-miterlimit="10"/>
<path d="M25.5936 75.615L129.54 77.0204" stroke="#FEED14" stroke-width="0.6974" stroke-miterlimit="10"/>
<path d="M47.4175 80.3259L202.426 82.4218" stroke="#FEED14" stroke-width="0.6974" stroke-miterlimit="10"/>
<path d="M157.749 68.1726L302.91 70.1353" stroke="#FEED14" stroke-width="0.6016" stroke-miterlimit="10"/>
<path d="M101.522 71.8286L416.646 76.0893" stroke="#FEED14" stroke-width="0.6016" stroke-miterlimit="10"/>
<path d="M68.6353 75.7997L416.586 80.5043" stroke="#FEED14" stroke-width="0.6016" stroke-miterlimit="10"/>
<path d="M35.7482 79.7717L460.291 85.5119" stroke="#FEED14" stroke-width="0.6016" stroke-miterlimit="10"/>
<path d="M101.342 85.0719L383.639 88.8888" stroke="#FEED14" stroke-width="0.6016" stroke-miterlimit="10"/>
<path d="M280.728 91.9135L383.58 93.3041" stroke="#FEED14" stroke-width="0.6016" stroke-miterlimit="10"/>
<path d="M132.589 94.3265L328.812 96.9796" stroke="#FEED14" stroke-width="0.6016" stroke-miterlimit="10"/>
<path d="M297.21 84.1261L342.409 84.7372" stroke="#00FFFB" stroke-width="0.5358" stroke-miterlimit="10"/>
<path d="M303.714 88.6294L401.198 89.9475" stroke="#00FFFB" stroke-width="0.5358" stroke-miterlimit="10"/>
<path d="M303.653 93.0441L382.719 94.1131" stroke="#00FFFB" stroke-width="0.5358" stroke-miterlimit="10"/>
<path d="M233.854 105.345L319.929 106.509" stroke="#00FFFB" stroke-width="0.5358" stroke-miterlimit="10"/>
<path d="M159.45 104.34L174.039 104.537" stroke="#00FFFB" stroke-width="0.5358" stroke-miterlimit="10"/>
<path d="M-172.161 94.8809L188.27 100.455" stroke="#00FFFB" stroke-width="0.5358" stroke-miterlimit="10"/>
<path d="M-172.21 98.0345L120.122 102.555" stroke="#00FFFB" stroke-width="0.5358" stroke-miterlimit="10"/>
<path d="M26.1418 103.304L179.434 105.675" stroke="#00FFFB" stroke-width="0.5358" stroke-miterlimit="10"/>
<path d="M-191.812 104.039L120.025 108.862" stroke="#00FFFB" stroke-width="0.5358" stroke-miterlimit="10"/>
<path d="M-172.355 107.495L224.261 113.628" stroke="#00FFFB" stroke-width="0.5358" stroke-miterlimit="10"/>
<path d="M-86.6973 111.974L205.635 116.495" stroke="#00FFFB" stroke-width="0.5358" stroke-miterlimit="10"/>
<path d="M-179.012 113.478L167.106 118.831" stroke="#00FFFB" stroke-width="0.5358" stroke-miterlimit="10"/>
<path d="M-151.729 116.502L140.603 121.023" stroke="#00FFFB" stroke-width="0.5358" stroke-miterlimit="10"/>
<path d="M-189.69 119.844L102.642 124.365" stroke="#00FFFB" stroke-width="0.5358" stroke-miterlimit="10"/>
<path d="M-218.609 121.451L163.692 127.363" stroke="#00FFFB" stroke-width="0.5358" stroke-miterlimit="10"/>
<path d="M-172.649 126.417L41.1401 129.723" stroke="#00FFFB" stroke-width="0.5358" stroke-miterlimit="10"/>
<path d="M-210.291 128.989L119.638 134.091" stroke="#00FFFB" stroke-width="0.5358" stroke-miterlimit="10"/>
<path d="M-128.079 132.834L259.966 138.835" stroke="#00FFFB" stroke-width="0.5358" stroke-miterlimit="10"/>
<path d="M-152.308 136.194L207.631 141.761" stroke="#00FFFB" stroke-width="0.5358" stroke-miterlimit="10"/>
<path d="M133.619 154.715L453.565 159.663" stroke="#00FFFB" stroke-width="0.5358" stroke-miterlimit="10"/>
</svg>
