<svg width="881" height="283" viewBox="0 0 881 283" fill="none" xmlns="http://www.w3.org/2000/svg">
<path d="M354.143 91.6093L546.829 94.2145" stroke="#FEED14" stroke-width="0.6974" stroke-miterlimit="10"/>
<path d="M320.465 96.8036L453.437 98.6015" stroke="#FEED14" stroke-width="0.6974" stroke-miterlimit="10"/>
<path d="M348.383 102.83L546.675 105.511" stroke="#FEED14" stroke-width="0.6974" stroke-miterlimit="10"/>
<path d="M489.523 87.2831L675.218 89.7938" stroke="#FEED14" stroke-width="0.6016" stroke-miterlimit="10"/>
<path d="M417.596 91.9598L820.713 97.4103" stroke="#FEED14" stroke-width="0.6016" stroke-miterlimit="10"/>
<path d="M375.525 97.0399L820.637 103.058" stroke="#FEED14" stroke-width="0.6016" stroke-miterlimit="10"/>
<path d="M333.455 102.121L876.546 109.464" stroke="#FEED14" stroke-width="0.6016" stroke-miterlimit="10"/>
<path d="M417.365 108.901L778.489 113.784" stroke="#FEED14" stroke-width="0.6016" stroke-miterlimit="10"/>
<path d="M646.842 117.653L778.414 119.432" stroke="#FEED14" stroke-width="0.6016" stroke-miterlimit="10"/>
<path d="M457.338 120.74L708.352 124.134" stroke="#FEED14" stroke-width="0.6016" stroke-miterlimit="10"/>
<path d="M667.926 107.691L725.746 108.473" stroke="#00FFFB" stroke-width="0.5358" stroke-miterlimit="10"/>
<path d="M676.246 113.452L800.951 115.138" stroke="#00FFFB" stroke-width="0.5358" stroke-miterlimit="10"/>
<path d="M676.168 119.099L777.312 120.467" stroke="#00FFFB" stroke-width="0.5358" stroke-miterlimit="10"/>
<path d="M586.879 134.836L696.989 136.325" stroke="#00FFFB" stroke-width="0.5358" stroke-miterlimit="10"/>
<path d="M491.699 133.55L510.361 133.802" stroke="#00FFFB" stroke-width="0.5358" stroke-miterlimit="10"/>
<path d="M850.568 98.0575L893.493 98.6379" stroke="#FEED14" stroke-width="0.6016" stroke-miterlimit="10"/>
<path d="M36.5116 116.935L250.291 120.241" stroke="#00FFFB" stroke-width="0.5358" stroke-miterlimit="10"/>
<path d="M67.4901 121.449L528.566 128.58" stroke="#00FFFB" stroke-width="0.5358" stroke-miterlimit="10"/>
<path d="M67.4276 125.483L441.389 131.267" stroke="#00FFFB" stroke-width="0.5358" stroke-miterlimit="10"/>
<path d="M321.166 132.225L517.263 135.257" stroke="#00FFFB" stroke-width="0.5358" stroke-miterlimit="10"/>
<path d="M42.3514 133.165L441.265 139.334" stroke="#00FFFB" stroke-width="0.5358" stroke-miterlimit="10"/>
<path d="M67.2421 137.585L574.607 145.431" stroke="#00FFFB" stroke-width="0.5358" stroke-miterlimit="10"/>
<path d="M176.818 143.315L550.78 149.099" stroke="#00FFFB" stroke-width="0.5358" stroke-miterlimit="10"/>
<path d="M58.7264 145.239L501.492 152.087" stroke="#00FFFB" stroke-width="0.5358" stroke-miterlimit="10"/>
<path d="M93.6268 149.107L467.588 154.891" stroke="#00FFFB" stroke-width="0.5358" stroke-miterlimit="10"/>
<path d="M45.0663 153.383L419.028 159.166" stroke="#00FFFB" stroke-width="0.5358" stroke-miterlimit="10"/>
<path d="M8.07214 155.438L497.125 163.002" stroke="#00FFFB" stroke-width="0.5358" stroke-miterlimit="10"/>
<path d="M66.8651 161.791L340.352 166.02" stroke="#00FFFB" stroke-width="0.5358" stroke-miterlimit="10"/>
<path d="M18.7128 165.081L440.769 171.608" stroke="#00FFFB" stroke-width="0.5358" stroke-miterlimit="10"/>
<path d="M123.881 170L620.283 177.677" stroke="#00FFFB" stroke-width="0.5358" stroke-miterlimit="10"/>
<path d="M92.8866 174.299L553.334 181.42" stroke="#00FFFB" stroke-width="0.5358" stroke-miterlimit="10"/>
<path d="M458.654 197.991L867.94 204.321" stroke="#00FFFB" stroke-width="0.5358" stroke-miterlimit="10"/>
</svg>
