<svg width="813" height="102" viewBox="0 0 813 102" fill="none" xmlns="http://www.w3.org/2000/svg">
<path d="M1.32642 61.8898L322.127 51.4111" stroke="#FF73BC" stroke-miterlimit="10"/>
<path d="M114.8 62.3181L435.602 51.8394" stroke="#FF73BC" stroke-miterlimit="10"/>
<path d="M40.3035 70.3472L326.622 60.9948" stroke="#FF73BC" stroke-miterlimit="10"/>
<path d="M168 34.3523L454.319 25" stroke="#FF73BC" stroke-miterlimit="10"/>
<path d="M52.4202 74.0836L447.414 61.1815" stroke="#00FFFB" stroke-miterlimit="10"/>
<path d="M180 41.9021L574.994 29" stroke="#00FFFB" stroke-miterlimit="10"/>
<path d="M40.6235 80.0649L361.426 69.5862" stroke="#00FFFB" stroke-miterlimit="10"/>
<path d="M40.7788 84.9253L386.66 73.6274" stroke="#FF73BC" stroke-miterlimit="10"/>
<path d="M63.4756 50.9304L409.357 39.6325" stroke="#FF73BC" stroke-miterlimit="10"/>
<path d="M598.339 14.5789L919.142 4.10014" stroke="#FF73BC" stroke-miterlimit="10"/>
<path d="M598.495 19.4386L882.724 10.1545" stroke="#FF73BC" stroke-miterlimit="10"/>
<path d="M567.593 26.8727L888.395 16.394" stroke="#FF73BC" stroke-miterlimit="10"/>
<path d="M598.815 29.1587L901.853 19.2602" stroke="#FEED14" stroke-miterlimit="10"/>
<path d="M567.626 35.0411L919.777 23.5384" stroke="#FF73BC" stroke-miterlimit="10"/>
<path d="M599.13 38.8771L959.64 27.1013" stroke="#FF73BC" stroke-miterlimit="10"/>
<path d="M545.574 46.4066L866.377 35.9279" stroke="#FF73BC" stroke-miterlimit="10"/>
<path d="M524.217 51.2758L826.21 41.4114" stroke="#FEED14" stroke-miterlimit="10"/>
<path d="M599.606 53.4558L871.296 44.5813" stroke="#FF73BC" stroke-miterlimit="10"/>
<path d="M738.779 54.7397L1042.86 44.8072" stroke="#FF73BC" stroke-miterlimit="10"/>
<path d="M440.615 77.4786L761.417 66.9999" stroke="#FF73BC" stroke-miterlimit="10"/>
<path d="M412.104 82.0737L732.907 71.595" stroke="#FF73BC" stroke-miterlimit="10"/>
<path d="M396 88.6669L784.724 75.9696" stroke="#FF73BC" stroke-miterlimit="10"/>
</svg>
