<svg width="375" height="232" viewBox="0 0 375 232" fill="none" xmlns="http://www.w3.org/2000/svg">
<path d="M266.508 88.3958L256.528 89.0135" stroke="#00FFFB" stroke-width="0.5358" stroke-miterlimit="10"/>
<path d="M119.395 107.287L-181.697 125.924" stroke="#9021E2" stroke-width="0.6974" stroke-miterlimit="10"/>
<path d="M101.677 112.416L-199.415 131.052" stroke="#9021E2" stroke-width="0.6974" stroke-miterlimit="10"/>
<path d="M119.895 115.342L-181.197 133.978" stroke="#9021E2" stroke-width="0.6974" stroke-miterlimit="10"/>
<path d="M120.143 119.368L-180.948 138.004" stroke="#9021E2" stroke-width="0.6974" stroke-miterlimit="10"/>
<path d="M120.393 123.395L-180.698 142.031" stroke="#9021E2" stroke-width="0.6974" stroke-miterlimit="10"/>
<path d="M60.251 122.995L-240.841 141.631" stroke="#9021E2" stroke-width="0.6974" stroke-miterlimit="10"/>
<path d="M75.4706 126.061L-225.621 144.698" stroke="#9021E2" stroke-width="0.6974" stroke-miterlimit="10"/>
<path d="M60.7509 131.05L-240.341 149.686" stroke="#9021E2" stroke-width="0.6974" stroke-miterlimit="10"/>
<path d="M56.4353 142.268L-244.657 160.904" stroke="#9021E2" stroke-width="0.6974" stroke-miterlimit="10"/>
<path d="M29.6967 137.677L-351.241 161.255" stroke="#9021E2" stroke-width="0.6974" stroke-miterlimit="10"/>
<path d="M40.874 149.018L-260.218 167.654" stroke="#9021E2" stroke-width="0.6974" stroke-miterlimit="10"/>
<path d="M234.313 104.552L117.537 111.779" stroke="#00FFFB" stroke-width="0.5358" stroke-miterlimit="10"/>
<path d="M217.608 109.628L-34.2536 125.217" stroke="#00FFFB" stroke-width="0.5358" stroke-miterlimit="10"/>
<path d="M217.856 113.655L13.5804 126.299" stroke="#00FFFB" stroke-width="0.5358" stroke-miterlimit="10"/>
<path d="M116.956 123.942L9.83765 130.572" stroke="#00FFFB" stroke-width="0.5358" stroke-miterlimit="10"/>
<path d="M287.347 118.403L69.441 131.891" stroke="#00FFFB" stroke-width="0.5358" stroke-miterlimit="10"/>
<path d="M273.966 123.274L-3.18157 140.428" stroke="#00FFFB" stroke-width="0.5358" stroke-miterlimit="10"/>
<path d="M158.965 133.469L-45.3115 146.113" stroke="#00FFFB" stroke-width="0.5358" stroke-miterlimit="10"/>
<path d="M312.049 129.002L70.1885 143.972" stroke="#00FFFB" stroke-width="0.5358" stroke-miterlimit="10"/>
<path d="M219.353 137.817L15.0765 150.46" stroke="#00FFFB" stroke-width="0.5358" stroke-miterlimit="10"/>
<path d="M231.578 141.101L27.3016 153.745" stroke="#00FFFB" stroke-width="0.5358" stroke-miterlimit="10"/>
<path d="M230.779 143.132L-36.3656 159.667" stroke="#00FFFB" stroke-width="0.5358" stroke-miterlimit="10"/>
<path d="M220.101 149.897L70.7087 159.143" stroke="#00FFFB" stroke-width="0.5358" stroke-miterlimit="10"/>
<path d="M185.575 155.506L-44.9726 169.776" stroke="#00FFFB" stroke-width="0.5358" stroke-miterlimit="10"/>
<path d="M190.667 160.813L-80.4917 177.596" stroke="#00FFFB" stroke-width="0.5358" stroke-miterlimit="10"/>
<path d="M206.531 162.864L-44.9875 178.432" stroke="#00FFFB" stroke-width="0.5358" stroke-miterlimit="10"/>
<path d="M10.825 181.314L-212.747 195.152" stroke="#00FFFB" stroke-width="0.5358" stroke-miterlimit="10"/>
<path d="M331.796 148.904L419.954 143.448" stroke="#FF0062" stroke-width="0.6974" stroke-miterlimit="10"/>
<path d="M365.481 142.778L467.613 136.456" stroke="#FF0062" stroke-width="0.6974" stroke-miterlimit="10"/>
<path d="M345.197 149.426L427.104 144.357" stroke="#FFFE1F" stroke-width="0.6016" stroke-miterlimit="10"/>
<path d="M313.256 147.361L491.063 136.356" stroke="#FFFE1F" stroke-width="0.6016" stroke-miterlimit="10"/>
<path d="M294.484 144.481L490.813 132.329" stroke="#FFFE1F" stroke-width="0.6016" stroke-miterlimit="10"/>
<path d="M275.713 141.601L515.259 126.774" stroke="#FFFE1F" stroke-width="0.6016" stroke-miterlimit="10"/>
<path d="M312.509 135.281L471.793 125.422" stroke="#FFFE1F" stroke-width="0.6016" stroke-miterlimit="10"/>
<path d="M221.258 91.1964L201.962 92.3907" stroke="#00FFFB" stroke-width="0.5358" stroke-miterlimit="10"/>
</svg>
