<svg width="575" height="79" viewBox="0 0 575 79" fill="none" xmlns="http://www.w3.org/2000/svg">
<path d="M33.8955 33.7261L226.356 24.0458" stroke="#FEED14" stroke-width="0.6974" stroke-miterlimit="10"/>
<path d="M0.638428 41.4982L133.455 34.8179" stroke="#FEED14" stroke-width="0.6974" stroke-miterlimit="10"/>
<path d="M28.9067 46.1757L226.966 36.2137" stroke="#FEED14" stroke-width="0.6974" stroke-miterlimit="10"/>
<path d="M168.703 20.2982L354.18 10.9692" stroke="#FEED14" stroke-width="0.6016" stroke-miterlimit="10"/>
<path d="M97.2411 29.9921L499.886 9.73994" stroke="#FF73BC" stroke-width="0.6016" stroke-miterlimit="10"/>
<path d="M55.6013 38.1855L500.191 15.8237" stroke="#FF73BC" stroke-width="0.6016" stroke-miterlimit="10"/>
<path d="M13.9634 46.379L556.418 19.0948" stroke="#FEED14" stroke-width="0.6016" stroke-miterlimit="10"/>
<path d="M98.1575 48.2408L458.858 30.0984" stroke="#FEED14" stroke-width="0.6016" stroke-miterlimit="10"/>
<path d="M327.746 42.7922L459.164 36.1822" stroke="#FEED14" stroke-width="0.6016" stroke-miterlimit="10"/>
<path d="M138.847 58.393L389.567 45.7823" stroke="#FEED14" stroke-width="0.6016" stroke-miterlimit="10"/>
<path d="M348.112 30.7043L405.865 27.7995" stroke="#00FFFB" stroke-width="0.5358" stroke-miterlimit="10"/>
<path d="M356.802 36.3666L481.361 30.1016" stroke="#00FFFB" stroke-width="0.5358" stroke-miterlimit="10"/>
<path d="M357.11 42.4492L458.135 37.3679" stroke="#00FFFB" stroke-width="0.5358" stroke-miterlimit="10"/>
<path d="M269.069 65.1726L379.051 59.6408" stroke="#00FFFB" stroke-width="0.5358" stroke-miterlimit="10"/>
<path d="M174.001 69.9543L192.641 69.0168" stroke="#00FFFB" stroke-width="0.5358" stroke-miterlimit="10"/>
<path d="M529.72 8.50232L572.595 6.34583" stroke="#FEED14" stroke-width="0.6016" stroke-miterlimit="10"/>
</svg>
