<svg width="21" height="20" viewBox="0 0 21 20" fill="none" xmlns="http://www.w3.org/2000/svg">
<path d="M1.75 14.6875C1.75 15.2677 1.98047 15.8241 2.3907 16.2343C2.80094 16.6445 3.35734 16.875 3.9375 16.875H17.0625C17.6427 16.875 18.1991 16.6445 18.6093 16.2343C19.0195 15.8241 19.25 15.2677 19.25 14.6875V8.67188H1.75V14.6875ZM4.32812 11.7188C4.32812 11.4079 4.45159 11.1099 4.67136 10.8901C4.89113 10.6703 5.1892 10.5469 5.5 10.5469H7.375C7.6858 10.5469 7.98387 10.6703 8.20364 10.8901C8.42341 11.1099 8.54688 11.4079 8.54688 11.7188V12.5C8.54688 12.8108 8.42341 13.1089 8.20364 13.3286C7.98387 13.5484 7.6858 13.6719 7.375 13.6719H5.5C5.1892 13.6719 4.89113 13.5484 4.67136 13.3286C4.45159 13.1089 4.32812 12.8108 4.32812 12.5V11.7188ZM17.0625 3.125H3.9375C3.35734 3.125 2.80094 3.35547 2.3907 3.7657C1.98047 4.17594 1.75 4.73234 1.75 5.3125V6.32812H19.25V5.3125C19.25 4.73234 19.0195 4.17594 18.6093 3.7657C18.1991 3.35547 17.6427 3.125 17.0625 3.125Z" fill="white"/>
</svg>
