<svg width="23" height="20" viewBox="0 0 23 20" fill="none" xmlns="http://www.w3.org/2000/svg">
<g clip-path="url(#clip0_231_1365)">
<path fill-rule="evenodd" clip-rule="evenodd" d="M4.21144 0.0982283L0.0177296 8.90373C0.00177129 8.93648 -0.00328578 8.97348 0.00329788 9.00931C0.00988155 9.04514 0.0277606 9.07792 0.0543203 9.10287L11.3805 19.9519C11.4127 19.9828 11.4555 20 11.5001 20C11.5447 20 11.5875 19.9828 11.6197 19.9519L22.9459 9.10355C22.9725 9.0786 22.9903 9.04582 22.9969 9.00998C23.0035 8.97415 22.9985 8.93716 22.9825 8.90441L18.7888 0.0989057C18.7753 0.0693331 18.7535 0.0442813 18.7261 0.0267445C18.6987 0.00920761 18.6668 -7.2543e-05 18.6343 1.31083e-05H4.36729C4.3346 -0.000393409 4.30249 0.0086632 4.27484 0.0260904C4.24718 0.0435177 4.22516 0.068571 4.21144 0.0982283Z" fill="#50AF95"/>
<path fill-rule="evenodd" clip-rule="evenodd" d="M12.9551 9.80811C12.8738 9.8142 12.4537 9.83926 11.5166 9.83926C10.7712 9.83926 10.242 9.81691 10.0563 9.80811C7.17583 9.68144 5.02579 9.18021 5.02579 8.58008C5.02579 7.97995 7.17583 7.47939 10.0563 7.35069V9.3089C10.2447 9.32245 10.7841 9.35429 11.5295 9.35429C12.4239 9.35429 12.8718 9.31703 12.9524 9.30958V7.35205C15.8268 7.48007 17.9721 7.9813 17.9721 8.58008C17.9721 9.17885 15.8275 9.68009 12.9524 9.80743L12.9551 9.80811ZM12.9551 7.14952V5.39723H16.9666V2.7251H6.04491V5.39723H10.0557V7.14885C6.7957 7.29854 4.34412 7.94405 4.34412 8.71758C4.34412 9.49111 6.7957 10.1359 10.0557 10.2863V15.9015H12.9545V10.2843C16.207 10.1346 18.6545 9.48975 18.6545 8.7169C18.6545 7.94405 16.209 7.29922 12.9545 7.14885L12.9551 7.14952Z" fill="white"/>
</g>
<defs>
<clipPath id="clip0_231_1365">
<rect width="23" height="20" fill="white"/>
</clipPath>
</defs>
</svg>
