<svg width="1440" height="240" viewBox="0 0 1440 240" fill="none" xmlns="http://www.w3.org/2000/svg">
<path d="M1001.73 112.851L1211.53 142.379" stroke="#FEED14" stroke-width="0.6974" stroke-miterlimit="10"/>
<path d="M964.275 113.852L1109.06 134.229" stroke="#FEED14" stroke-width="0.6974" stroke-miterlimit="10"/>
<path d="M993.891 124.292L1209.8 154.678" stroke="#FEED14" stroke-width="0.6974" stroke-miterlimit="10"/>
<path d="M1149.99 126.882L1352.18 155.338" stroke="#FF00A8" stroke-width="0.6016" stroke-miterlimit="10"/>
<path d="M1070.89 122.021L1509.82 183.796" stroke="#FF00A8" stroke-width="0.6016" stroke-miterlimit="10"/>
<path d="M1024.3 121.736L1508.96 189.945" stroke="#FF00A8" stroke-width="0.6016" stroke-miterlimit="10"/>
<path d="M977.707 121.45L1569.05 204.674" stroke="#FF00A8" stroke-width="0.6016" stroke-miterlimit="10"/>
<path d="M1068.29 140.467L1461.5 195.806" stroke="#FF00A8" stroke-width="0.6016" stroke-miterlimit="10"/>
<path d="M1317.37 181.795L1460.63 201.957" stroke="#FF00A8" stroke-width="0.6016" stroke-miterlimit="10"/>
<path d="M1110.25 158.916L1383.57 197.382" stroke="#FF00A8" stroke-width="0.6016" stroke-miterlimit="10"/>
<path d="M1341.75 173.849L1404.71 182.71" stroke="#00FFFB" stroke-width="0.5358" stroke-miterlimit="10"/>
<path d="M1350.03 181.285L1485.81 200.395" stroke="#00FFFB" stroke-width="0.5358" stroke-miterlimit="10"/>
<path d="M1349.16 187.434L1459.29 202.934" stroke="#00FFFB" stroke-width="0.5358" stroke-miterlimit="10"/>
<path d="M1249.59 192.232L1369.48 209.106" stroke="#00FFFB" stroke-width="0.5358" stroke-miterlimit="10"/>
<path d="M1145.95 177.647L1166.27 180.506" stroke="#00FFFB" stroke-width="0.5358" stroke-miterlimit="10"/>
<path d="M491.526 57.0331L682.752 80.8506" stroke="#FF009D" stroke-width="0.6974" stroke-miterlimit="10"/>
<path d="M457.481 58.4855L589.445 74.9219" stroke="#FF009D" stroke-width="0.6974" stroke-miterlimit="10"/>
<path d="M484.565 67.5509L681.354 92.0613" stroke="#FF009D" stroke-width="0.6974" stroke-miterlimit="10"/>
<path d="M626.559 67.6481L810.846 90.6014" stroke="#FF009D" stroke-width="0.6016" stroke-miterlimit="10"/>
<path d="M554.554 64.3721L954.617 114.201" stroke="#FF009D" stroke-width="0.6016" stroke-miterlimit="10"/>
<path d="M512.18 64.7864L953.919 119.806" stroke="#FF009D" stroke-width="0.6016" stroke-miterlimit="10"/>
<path d="M469.806 65.2017L1008.78 132.332" stroke="#FF009D" stroke-width="0.6016" stroke-miterlimit="10"/>
<path d="M552.458 81.1851L910.846 125.823" stroke="#FF009D" stroke-width="0.6016" stroke-miterlimit="10"/>
<path d="M779.574 115.165L910.149 131.428" stroke="#FF009D" stroke-width="0.6016" stroke-miterlimit="10"/>
<path d="M590.883 97.3556L839.996 128.383" stroke="#FF009D" stroke-width="0.6016" stroke-miterlimit="10"/>
<path d="M801.627 107.586L859.009 114.734" stroke="#00FFFB" stroke-width="0.5358" stroke-miterlimit="10"/>
<path d="M809.262 114.229L933.022 129.643" stroke="#00FFFB" stroke-width="0.5358" stroke-miterlimit="10"/>
<path d="M808.562 119.833L908.94 132.336" stroke="#00FFFB" stroke-width="0.5358" stroke-miterlimit="10"/>
<path d="M718.083 125.637L827.359 139.247" stroke="#00FFFB" stroke-width="0.5358" stroke-miterlimit="10"/>
<path d="M623.624 113.873L642.145 116.18" stroke="#00FFFB" stroke-width="0.5358" stroke-miterlimit="10"/>
<path d="M984.219 118.133L1026.82 123.439" stroke="#FF009D" stroke-width="0.6016" stroke-miterlimit="10"/>
<path d="M-132.699 10.2621L58.5267 34.0796" stroke="#FF009D" stroke-width="0.6974" stroke-miterlimit="10"/>
<path d="M-139.66 20.7799L57.1291 45.2903" stroke="#FF009D" stroke-width="0.6974" stroke-miterlimit="10"/>
<path d="M2.33398 20.8771L186.622 43.8304" stroke="#FF009D" stroke-width="0.6016" stroke-miterlimit="10"/>
<path d="M-69.6711 17.6011L330.392 67.4296" stroke="#FF009D" stroke-width="0.6016" stroke-miterlimit="10"/>
<path d="M-112.045 18.0154L329.694 73.0347" stroke="#FF009D" stroke-width="0.6016" stroke-miterlimit="10"/>
<path d="M-154.419 18.4307L384.557 85.561" stroke="#FF009D" stroke-width="0.6016" stroke-miterlimit="10"/>
<path d="M-71.7666 34.4141L286.621 79.0518" stroke="#FF009D" stroke-width="0.6016" stroke-miterlimit="10"/>
<path d="M155.349 68.394L285.924 84.6573" stroke="#FF009D" stroke-width="0.6016" stroke-miterlimit="10"/>
<path d="M-33.3416 50.5846L215.771 81.612" stroke="#FF009D" stroke-width="0.6016" stroke-miterlimit="10"/>
<path d="M177.402 60.8155L234.784 67.9625" stroke="#FEED14" stroke-width="0.5358" stroke-miterlimit="10"/>
<path d="M185.037 67.4578L308.797 82.8724" stroke="#FEED14" stroke-width="0.5358" stroke-miterlimit="10"/>
<path d="M184.337 73.0623L284.715 85.5645" stroke="#FEED14" stroke-width="0.5358" stroke-miterlimit="10"/>
<path d="M93.858 78.8659L203.134 92.4764" stroke="#FEED14" stroke-width="0.5358" stroke-miterlimit="10"/>
<path d="M-0.600586 67.1017L17.9203 69.4085" stroke="#FEED14" stroke-width="0.5358" stroke-miterlimit="10"/>
<path d="M359.994 71.362L402.594 76.6678" stroke="#FF009D" stroke-width="0.6016" stroke-miterlimit="10"/>
</svg>
