<svg width="195" height="345" viewBox="0 0 195 345" fill="none" xmlns="http://www.w3.org/2000/svg">
<path d="M174.418 121.976C174.978 119.915 174.415 117.947 174.595 115.945C175.261 108.562 175.242 101.161 173.764 93.8902C170.175 76.2315 161.182 62.4338 144.37 54.7631C139.238 52.4205 135.512 48.4645 131.214 45.1487C130.587 44.6651 130.003 44.1265 129.523 43.4119C138.273 47.8265 147.402 51.5296 155.645 58.0219C153.185 52.0435 149.331 47.6718 145.56 43.1808C149.885 46.2358 154.331 49.1362 158.029 53.0316C155.035 47.3157 149.996 43.5411 144.57 39.3517C152.234 41.5829 158.532 45.3162 165.039 48.6243C160.214 41.0881 152.996 36.3547 145.715 31.6632C157.686 34.8824 168.212 41.3502 179.358 46.463C172.719 39.8643 166.155 33.2157 157.94 28.4996C169.231 31.2084 179.74 35.8744 190.187 40.727C185.958 33.9187 179.212 30.2547 172.784 26.1532C180.468 27.3987 187.787 29.8091 194.935 32.8204C180.866 19.4787 164.796 11.8102 144.81 15.0621C148.087 13.875 151.372 13.4727 154.669 13.0628C149.583 12.131 144.566 12.9905 139.565 13.8179C134.597 14.6393 129.755 16.0401 124.881 17.2888C136.149 10.8462 148.557 8.74904 161.282 7.72434C146.01 3.64184 131.311 5.89682 116.865 11.4728C121.408 7.63962 126.795 4.99233 131.099 0.81056C122.331 3.62456 114.567 8.34812 106.798 13.1867C109.042 9.90031 112.003 7.26679 114.716 4.40935C104.599 10.0384 98.1637 18.9863 92.5567 28.9127C84.5709 22.5537 76.6148 15.6803 65.6362 14.5107C70.7296 15.9271 75.0698 18.7633 79.3324 21.7753C66.7853 16.906 53.7209 15.2059 40.3199 15.2584C45.2571 17.8405 50.6134 19.4878 55.4957 22.2483C51.551 21.6701 47.6203 20.9821 43.6067 21.7417C45.985 21.9398 48.2441 22.6083 50.5216 23.2378C47.3792 23.5541 44.1898 22.72 41.0571 24.0319C44.4018 24.5393 47.7463 25.0456 51.0907 25.5521C47.0247 26.0579 42.982 26.6895 38.9401 27.3552C34.9002 28.0204 31.0033 29.0665 27.1774 30.5214C31.4043 30.6292 35.586 31.0096 39.7547 31.4995C43.9146 31.9878 48.0615 32.5855 52.242 33.312C38.8215 34.6373 25.7622 37.0256 14.4709 45.0202C17.6838 44.0612 20.7777 42.7349 24.0999 41.9686C16.0004 47.1702 8.68675 53.3539 0.95586 59.5359C2.54679 60.1917 3.38341 59.5646 4.29177 59.0819C17.3021 52.1682 30.5633 45.8996 45.2491 43.349C45.4297 43.3176 45.6286 43.3955 46.1337 43.4667C32.3512 47.6835 19.7563 53.5571 8.94834 62.9403C19.984 57.826 30.9824 52.6613 43.1791 51.5482C36.0882 56.3258 28.4846 60.7576 23.1107 67.9295C29.0392 64.6595 34.0074 60.0016 39.8144 56.5291C35.4125 62.0576 30.2562 67.0302 27.5129 74.4161C33.5091 69.8077 38.5069 64.7596 44.6154 61.1231C40.7746 64.8365 38.0459 69.4084 34.7349 73.5731C40.9263 70.0735 46.0806 65.1318 52.3127 61.7014C47.8713 67.1677 42.7348 72.1092 39.7272 79.0306C45.9296 74.3266 51.3425 69.1691 57.8566 65.4197C56.7515 67.5503 54.7756 69.0827 53.7082 71.7022C56.2472 69.765 58.0278 67.5019 60.5185 66.0629C60.8282 66.567 60.3161 66.8226 60.111 67.1435C58.8914 69.0537 57.5564 70.9381 56.846 73.0824C55.5825 76.8952 53.1539 79.7254 50.1803 82.3064C43.4812 88.121 38.6403 95.384 34.4829 103.138C34.1073 103.839 33.7641 104.568 33.5089 105.319C33.2578 106.055 33.1393 106.837 33.1656 107.739C35.0706 106.39 35.8878 104.177 37.3111 102.434C33.5573 112.254 30.2666 122.172 29.5103 132.81C32.5867 127.877 34.6565 122.432 38.0215 117.681C36.4699 123.258 34.6622 128.779 34.7267 134.679C36.3696 131.634 37.1369 128.292 38.083 125.017C39.0575 121.642 40.0524 118.275 41.682 115.113C40.1413 121.557 37.5634 127.832 38.4998 134.747C41.1696 132.457 41.4192 128.847 43.5607 125.771C42.9529 128.249 42.802 130.298 43.4115 132.428C44.8855 127.609 46.3597 122.79 47.8336 117.971C47.8227 119.83 47.5211 121.623 47.4725 123.634C48.5531 122.416 48.4451 120.696 49.6013 119.719C50.6691 120.448 49.3986 121.122 49.782 121.778C50.5939 121.817 50.516 121.025 50.7529 120.612C52.8059 117.031 54.3726 113.06 56.967 109.942C58.6486 107.921 60.409 105.886 62.1769 103.844C61.3497 106.72 59.6048 109.268 59.122 112.791C60.9174 110.334 61.9135 107.939 63.7342 105.836C60.167 118.351 56.0947 130.51 55.6065 143.479C56.7525 139.415 57.8983 135.351 59.0444 131.287C58.535 138.53 56.6094 145.514 55.682 152.718C56.3605 151.414 57.0392 150.111 57.8765 148.502C58.0139 151.692 58.3552 154.519 58.315 157.507C62.2702 153.633 63.4837 148.14 66.6123 143.294C66.0013 154.095 65.6529 164.52 67.5729 174.858C67.6426 175.235 67.8902 175.578 68.2862 175.953C68.9397 168.366 70.5592 160.97 72.0601 153.51C72.4154 165.101 75.4623 176.004 80.2503 186.529C78.8465 172.041 77.9388 157.552 77.9629 143.005C78.8246 147.139 79.7903 151.255 80.5201 155.412C81.2565 159.612 83.1378 163.38 84.7014 167.331C84.808 155.306 82.9415 143.351 83.971 130.81C85.2742 139.073 85.3864 147.069 89.3357 154.815C89.9335 145.03 89.2578 135.737 90.1781 126.488C90.5285 131.248 91.3623 135.92 92.7465 140.571C93.2806 131.407 94.0535 122.29 96.8638 112.999C96.7762 117.775 96.3223 122.122 97.477 126.919C98.3862 119.377 99.2284 112.383 100.073 105.372C100.793 105.552 100.674 106.096 100.679 106.529C100.751 113.203 100.833 119.876 100.863 126.551C100.911 137.769 100.848 148.989 100.974 160.207C101.078 169.411 101.252 178.619 101.648 187.813C101.989 195.726 102.473 203.634 103.078 211.536C103.47 216.652 103.406 221.806 103.426 226.944C103.451 233.81 103.992 240.649 104.317 247.499C104.623 253.949 104.913 260.401 105.352 266.842C105.804 273.473 106.49 280.088 106.957 286.718C107.424 293.354 108.371 299.932 109.105 306.534C110.165 316.06 112.063 325.429 114.022 334.793C114.685 337.959 115.396 341.115 116.093 344.312C121.088 344.482 125.95 344.647 131.077 344.821C129.992 339.576 129.02 334.437 127.858 329.34C123.422 309.882 120.215 290.22 118.076 270.387C116.704 257.657 115.584 244.905 114.807 232.12C113.961 218.197 113.076 204.277 112.638 190.332C112.256 178.186 111.941 166.036 111.471 153.892C110.996 141.619 110.569 129.342 109.626 117.092C109.242 112.1 109.237 107.186 110.672 102.277C111.445 99.6336 111.67 96.7897 111.701 93.9804C112.22 100.238 112.006 106.488 112.002 112.767C113.472 108.849 113.811 104.732 114.307 100.598C117.556 110.038 118.966 119.93 121.416 129.581C122.731 123.574 124.372 117.673 123.61 111.473C127.968 122.935 129.742 134.918 130.973 147.503C133.989 142.419 133.818 137.177 134.165 132.013C136.997 143.21 137.713 154.637 138.286 166.134C141.516 155.615 141.955 144.83 141.71 133.901C144.439 140.835 147.679 147.502 151.901 153.736C149.958 144.447 148.384 135.106 146.196 125.87C148.233 129.483 149.225 133.55 151.622 137.198C150.757 127.77 151.707 118.44 149.397 109.396C146.895 99.6001 143.078 90.3282 137.952 81.6032C137.724 81.2154 137.504 80.8222 137.625 80.1006C139.125 81.5984 140.677 83.0503 142.113 84.607C143.653 86.2758 145.171 87.978 146.537 89.7879C147.867 91.5491 149.297 93.1942 151.159 94.955C151.543 91.6254 150.164 88.8514 149.662 85.9257C154.884 93.947 161.087 101.322 164.685 110.379C165.894 105.777 165.265 101.249 164.959 96.3988C169.869 104.47 171.991 113.256 174.418 121.976Z" fill="#1E1918"/>
</svg>
