<svg width="126" height="222" viewBox="0 0 126 222" fill="none" xmlns="http://www.w3.org/2000/svg">
<path d="M112.325 78.1736C112.685 76.8479 112.323 75.5819 112.439 74.2943C112.867 69.5463 112.855 64.7859 111.904 60.1096C109.596 48.7521 103.812 39.8779 92.9991 34.9444C89.6981 33.4377 87.3016 30.8934 84.5374 28.7607C84.134 28.4497 83.7589 28.1033 83.4497 27.6437C89.0776 30.483 94.9491 32.8647 100.251 37.0404C98.6687 33.1952 96.1896 30.3835 93.7646 27.4951C96.546 29.4599 99.4056 31.3253 101.784 33.8307C99.8581 30.1545 96.6175 27.7268 93.1278 25.0323C98.057 26.4674 102.108 28.8685 106.293 30.9961C103.189 26.1491 98.5468 23.1048 93.8641 20.0873C101.564 22.1578 108.333 26.3177 115.502 29.606C111.232 25.362 107.01 21.0859 101.727 18.0526C108.989 19.7949 115.748 22.7958 122.467 25.9169C119.747 21.538 115.408 19.1814 111.274 16.5435C116.216 17.3445 120.923 18.8948 125.521 20.8316C116.472 12.2507 106.136 7.31858 93.2819 9.4101C95.3895 8.64657 97.5027 8.38783 99.6232 8.1242C96.3519 7.52488 93.1248 8.07769 89.9084 8.60985C86.7136 9.13815 83.5995 10.0391 80.4647 10.8422C87.7114 6.69858 95.6922 5.34976 103.876 4.6907C94.0539 2.06498 84.5997 3.51531 75.3088 7.10155C78.2308 4.63621 81.6957 2.93357 84.4634 0.244003C78.8242 2.05387 73.8305 5.0919 68.8343 8.20392C70.2776 6.09021 72.182 4.39643 73.9268 2.55862C67.4199 6.17904 63.2808 11.934 59.6746 18.3183C54.5383 14.2284 49.4213 9.80768 42.3602 9.05548C45.6362 9.96645 48.4276 11.7906 51.1691 13.7278C43.0993 10.596 34.6967 9.50256 26.0777 9.53634C29.2531 11.197 32.6981 12.2566 35.8382 14.032C33.3011 13.6601 30.773 13.2177 28.1916 13.7062C29.7213 13.8336 31.1742 14.2636 32.6391 14.6684C30.618 14.8719 28.5667 14.3354 26.5518 15.1792C28.703 15.5055 30.8541 15.8312 33.0051 16.1569C30.39 16.4822 27.7898 16.8884 25.1902 17.3166C22.5919 17.7444 20.0856 18.4172 17.6249 19.353C20.3435 19.4223 23.033 19.667 25.7142 19.982C28.3897 20.2961 31.0568 20.6805 33.7456 21.1478C25.114 22.0002 16.7146 23.5362 9.45247 28.6781C11.5189 28.0613 13.5088 27.2083 15.6455 26.7154C10.4362 30.0609 5.73234 34.0381 0.760096 38.0141C1.78333 38.4359 2.32141 38.0325 2.90564 37.7221C11.2734 33.2755 19.8026 29.2437 29.2479 27.6033C29.3641 27.583 29.492 27.6331 29.8169 27.679C20.9525 30.3911 12.8519 34.1687 5.90058 40.2037C12.9983 36.9144 20.0721 33.5926 27.9166 32.8767C23.356 35.9495 18.4656 38.7998 15.0093 43.4126C18.8223 41.3094 22.0177 38.3136 25.7525 36.0802C22.9214 39.636 19.605 42.8342 17.8406 47.5845C21.6972 44.6205 24.9116 41.3738 28.8404 39.0349C26.3701 41.4232 24.6151 44.3638 22.4856 47.0423C26.4677 44.7915 29.7827 41.6132 33.7911 39.4069C30.9344 42.9226 27.6308 46.1008 25.6965 50.5524C29.6856 47.5269 33.167 44.2098 37.3567 41.7983C36.6459 43.1686 35.3751 44.1542 34.6885 45.839C36.3215 44.5931 37.4668 43.1375 39.0687 42.212C39.2679 42.5362 38.9386 42.7007 38.8066 42.907C38.0222 44.1356 37.1636 45.3476 36.7067 46.7267C35.8941 49.179 34.3321 50.9993 32.4195 52.6593C28.1109 56.399 24.9974 61.0704 22.3235 66.0572C22.082 66.5082 21.8612 66.9771 21.6971 67.4599C21.5356 67.9338 21.4593 68.4364 21.4763 69.0163C22.7015 68.1493 23.2271 66.726 24.1425 65.6043C21.7282 71.9203 19.6117 78.2996 19.1253 85.1415C21.104 81.969 22.4352 78.467 24.5994 75.4111C23.6015 78.9981 22.4388 82.5487 22.4803 86.3437C23.537 84.3848 24.0305 82.2356 24.639 80.129C25.2658 77.9584 25.9056 75.7933 26.9537 73.7591C25.9628 77.9041 24.3048 81.94 24.9071 86.3874C26.6242 84.9147 26.7847 82.5924 28.162 80.6141C27.7711 82.2078 27.6741 83.5261 28.0661 84.8959C29.0141 81.7962 29.9622 78.6971 30.9102 75.5975C30.9032 76.7933 30.7092 77.946 30.678 79.2398C31.373 78.4567 31.3035 77.3504 32.0471 76.7219C32.7339 77.1907 31.9168 77.6244 32.1634 78.0458C32.6856 78.0711 32.6354 77.5616 32.7878 77.296C34.1082 74.993 35.1159 72.4389 36.7845 70.4333C37.866 69.1339 38.9983 67.8247 40.1354 66.5113C39.6033 68.3611 38.481 69.9999 38.1705 72.2659C39.3253 70.6858 39.966 69.1452 41.1369 67.7927C38.8426 75.8419 36.2235 83.6624 35.9095 92.0034C36.6466 89.3898 37.3835 86.7756 38.1206 84.1621C37.793 88.8206 36.5545 93.3123 35.958 97.9458C36.3944 97.1069 36.8309 96.2687 37.3694 95.2338C37.4578 97.2855 37.6773 99.1036 37.6515 101.026C40.1954 98.5341 40.9758 95.0013 42.988 91.8844C42.595 98.8312 42.371 105.536 43.6059 112.185C43.6507 112.428 43.8099 112.648 44.0646 112.889C44.4849 108.01 45.5266 103.253 46.4919 98.4547C46.7204 105.91 48.68 112.922 51.7595 119.692C50.8567 110.373 50.2728 101.055 50.2883 91.6987C50.8425 94.3576 51.4637 97.0045 51.933 99.6783C52.4067 102.38 53.6166 104.803 54.6223 107.344C54.6908 99.6102 53.4904 91.9212 54.1526 83.8548C54.9907 89.1696 55.0629 94.3122 57.603 99.2941C57.9874 93.0009 57.5528 87.0237 58.1447 81.0756C58.3701 84.1367 58.9063 87.1417 59.7966 90.1333C60.1402 84.2393 60.6373 78.3756 62.4447 72.3998C62.3884 75.4712 62.0965 78.267 62.8392 81.3528C63.4239 76.5019 63.9656 72.0032 64.509 67.4946C64.9718 67.6103 64.8952 67.9599 64.8985 68.2384C64.9449 72.5309 64.9978 76.8229 65.0167 81.1157C65.0478 88.3309 65.0074 95.5469 65.0882 102.762C65.1549 108.682 65.2671 114.604 65.522 120.518C65.7412 125.607 66.0523 130.693 66.4416 135.775C66.6937 139.065 66.6524 142.381 66.665 145.685C66.6814 150.101 67.029 154.5 67.2384 158.905C67.4355 163.054 67.6215 167.203 67.9042 171.346C68.1947 175.611 68.6361 179.865 68.9366 184.13C69.2368 188.398 69.8456 192.628 70.3181 196.875C70.9999 203.001 72.2202 209.027 73.4806 215.05C73.907 217.086 74.3643 219.116 74.8121 221.172C78.025 221.281 81.1518 221.388 84.4494 221.499C83.7517 218.126 83.1263 214.821 82.3789 211.543C79.5259 199.028 77.4635 186.382 76.088 173.626C75.205 165.439 74.4848 157.237 73.9854 149.014C73.4413 140.059 72.8717 131.107 72.59 122.138C72.3446 114.325 72.1416 106.511 71.8396 98.7004C71.5343 90.8074 71.2596 82.9112 70.6529 75.0324C70.4059 71.8214 70.4026 68.6611 71.3258 65.5038C71.8229 63.8036 71.9676 61.9745 71.9872 60.1676C72.3216 64.192 72.1838 68.2123 72.181 72.2503C73.1263 69.7305 73.3446 67.0825 73.6637 64.4236C75.753 70.4952 76.6602 76.8573 78.2357 83.0649C79.0817 79.2013 80.1369 75.4056 79.6471 71.418C82.4501 78.79 83.5908 86.497 84.3826 94.5913C86.3226 91.3217 86.2127 87.9504 86.4354 84.6287C88.2567 91.8303 88.7174 99.1801 89.086 106.574C91.1632 99.8085 91.4458 92.8722 91.288 85.843C93.0434 90.3029 95.127 94.5907 97.8428 98.6C96.5931 92.626 95.5809 86.618 94.1735 80.6781C95.4838 83.0017 96.1217 85.6174 97.6631 87.9634C97.1071 81.8998 97.7181 75.899 96.2322 70.0822C94.6228 63.782 92.1678 57.8186 88.871 52.207C88.7246 51.9576 88.5832 51.7047 88.6609 51.2406C89.6257 52.2039 90.6239 53.1377 91.5477 54.1389C92.5376 55.2123 93.5145 56.307 94.3927 57.4711C95.248 58.6039 96.1681 59.662 97.3652 60.7944C97.6125 58.6529 96.7254 56.8688 96.4028 54.9871C99.7614 60.1461 103.751 64.8892 106.065 70.7144C106.843 67.7547 106.438 64.8424 106.241 61.723C109.399 66.9142 110.764 72.5648 112.325 78.1736Z" fill="#1E1918"/>
</svg>
