<svg width="127" height="142" viewBox="0 0 127 142" fill="none" xmlns="http://www.w3.org/2000/svg">
<path d="M35.8826 80.3128C35.0319 79.7633 34.6066 78.8908 33.9086 78.2418C31.3341 75.8495 28.9949 73.2334 27.2118 70.2008C22.8807 62.8361 21.6793 55.12 25.1769 47.0867C26.2444 44.6339 26.3047 42.0579 26.7694 39.5265C26.8373 39.1572 26.8723 38.7824 26.8153 38.378C25.1287 42.7081 23.0829 46.9073 22.2335 51.8094C21.2063 48.9214 21.1801 46.1581 21.0864 43.3794C20.5295 45.8273 19.8808 48.2593 19.8111 50.8052C19.0557 47.8403 19.6363 44.9123 20.222 41.7152C18.2264 44.931 17.1885 48.2437 15.9424 51.4724C15.2555 47.2856 16.3008 43.3287 17.3814 39.3667C14.18 44.2961 12.5181 49.9128 10.2076 55.2486C10.4578 50.8172 10.6654 46.3923 12.0676 42.1257C8.94427 46.6595 6.71719 51.6354 4.57107 56.6577C3.90452 52.9165 5.1224 49.4863 6.08939 46.0026C3.77421 48.8772 1.9571 52.0469 0.390679 55.3743C1.12361 46.2105 4.36056 38.4128 12.4392 33.2254C10.9074 33.8453 9.62121 34.7448 8.32862 35.6452C9.82699 33.7045 11.8688 32.4174 13.8946 31.1242C15.9067 29.8396 18.0581 28.7991 20.1727 27.6947C14.1575 28.9937 9.11683 32.1869 4.30469 35.8584C8.39646 29.5785 14.295 25.7149 21.1564 23.103C18.3394 23.1911 15.6006 23.9649 12.7577 23.8541C16.7416 22.0676 20.9767 21.2726 25.2497 20.517C23.4167 20.0692 21.5379 20.0789 19.6756 19.9311C25.0274 18.7097 30.1328 19.8256 35.2561 21.5491C36.0569 16.7756 36.6842 11.8301 40.1852 7.93818C38.8379 10.052 38.2062 12.4277 37.6576 14.8408C40.5391 9.14709 44.6075 4.40695 49.35 0.178242C48.4272 2.65358 47.0604 4.9321 46.2135 7.45298C47.4214 5.99885 48.5895 4.51047 50.2457 3.50629C49.4697 4.32992 48.8849 5.28165 48.2813 6.22549C49.4897 5.34109 50.3501 4.03612 51.8706 3.50589C50.8519 4.74487 49.833 5.98341 48.814 7.22196C50.4083 6.11171 52.0341 5.05314 53.6705 4.00691C55.306 2.96109 57.0117 2.09493 58.8221 1.39548C57.3656 2.77314 56.0115 4.23262 54.6966 5.72656C53.3844 7.21718 52.1114 8.74225 50.8674 10.3234C56.0202 6.53735 61.3826 3.24063 67.8982 2.48134C66.4612 3.16144 64.9498 3.67429 63.5354 4.45696C68.0402 3.72434 72.5792 3.58707 77.2648 3.31699C76.9116 4.05247 76.4178 4.09647 75.9445 4.21415C69.1652 5.89944 62.5019 7.89172 56.5146 11.6467C56.4409 11.6928 56.3955 11.7833 56.2399 11.9685C62.4368 9.08746 68.7399 7.16705 75.5252 7.05063C70.0126 8.74464 64.4971 10.4091 59.8431 13.8821C63.858 13.3195 67.944 12.4726 72.1121 13.2986C68.985 14.0244 65.7567 13.9564 62.6083 14.5722C65.9128 15.1268 69.3072 15.2461 72.6155 16.9813C69.0404 17.2566 65.6779 17.0603 62.3713 17.7139C64.9026 17.8061 67.3139 18.5536 69.8015 18.9729C66.5089 19.7011 63.1251 19.5919 59.84 20.3574C63.1388 20.8774 66.5163 20.9921 69.7706 22.4798C66.0924 22.7866 62.549 22.6834 59.0634 23.4257C60.1284 23.8268 61.3109 23.741 62.5175 24.3264C61.0082 24.448 59.663 24.2142 58.3286 24.4962C58.3791 24.7721 58.6407 24.6999 58.8148 24.7481C59.8503 25.0352 60.9183 25.2766 61.8484 25.8076C63.5024 26.7518 65.2558 26.9802 67.1225 26.9479C71.3278 26.8753 75.3369 27.9023 79.2603 29.3191C79.615 29.4473 79.9671 29.5957 80.295 29.7795C80.6171 29.9597 80.9065 30.1977 81.183 30.5241C80.084 30.6524 79.0945 30.131 78.0398 29.9671C82.4759 32.2405 86.7799 34.6954 90.4181 38.2071C87.7699 37.4426 85.3143 36.1784 82.6218 35.5694C84.9365 37.0444 87.3237 38.4183 89.171 40.5195C87.6263 39.9661 86.2966 39.0309 84.9249 38.1757C83.5117 37.2944 82.0939 36.4226 80.5168 35.8237C83.1027 37.6082 86.0006 39.004 87.8619 41.7393C86.1947 41.778 84.9623 40.5838 83.2323 40.1778C84.2319 40.859 84.9348 41.534 85.3948 42.4782C83.3476 41.2458 81.3006 40.0138 79.2534 38.7813C79.8465 39.4335 80.5209 39.97 81.1756 40.664C80.4086 40.5771 79.9015 39.9363 79.1841 39.9581C79.0385 40.5536 79.7003 40.3887 79.7727 40.7413C79.4989 41.0125 79.2753 40.7084 79.0609 40.6379C77.202 40.0258 75.3909 39.1219 73.4877 38.8445C72.2544 38.665 70.9884 38.5051 69.7178 38.3452C70.921 39.0973 72.3439 39.4428 73.6308 40.5323C72.219 40.235 71.1086 39.7059 69.8001 39.5414C75.0244 42.8242 80.3143 45.8216 84.5967 50.2403C82.9046 49.1705 81.2123 48.1003 79.5203 47.0304C81.9955 49.4233 84.888 51.2759 87.4983 53.5225C86.8456 53.2776 86.1932 53.0331 85.388 52.731C86.3505 53.8995 87.1261 55.0046 88.0875 56.0458C85.4648 55.9331 83.296 54.3806 80.6568 53.6632C84.2954 57.2785 87.7223 60.8445 90.3216 65.0986C90.4165 65.2537 90.438 65.4531 90.4171 65.7108C87.7822 63.2425 84.867 61.1476 81.9733 58.9923C85.5218 63.1927 87.9027 68.0032 89.5499 73.2324C85.4531 67.6781 81.1813 62.2811 76.5625 57.1587C77.5688 58.8898 78.5326 60.6471 79.5928 62.3445C80.6643 64.0591 81.1949 65.9839 81.8956 67.8728C78.0471 63.6661 74.9164 58.8586 70.5784 54.7621C72.7379 58.0892 75.2324 60.9445 76.2946 64.9278C72.9827 61.6666 70.2756 58.1751 67.02 55.2055C68.4048 56.9949 69.5916 58.9068 70.5776 60.9859C67.4849 57.9234 64.3228 54.9533 60.3871 52.5674C61.9315 54.2237 63.4692 55.6128 64.5826 57.6707C61.8716 55.2991 59.3577 53.0994 56.838 50.895C56.6413 51.1866 56.8556 51.3405 56.991 51.4948C59.0809 53.8713 61.1668 56.2507 63.2718 58.6137C66.8102 62.5852 70.3882 66.5219 73.8993 70.5177C76.78 73.7967 79.6365 77.099 82.4109 80.4671C84.7984 83.3654 87.1341 86.3074 89.4252 89.2861C90.9083 91.2143 92.5647 93.0119 94.1862 94.83C96.3532 97.2592 98.3301 99.8424 100.386 102.361C102.322 104.733 104.265 107.1 106.152 109.51C108.094 111.992 109.948 114.542 111.885 117.029C113.823 119.517 115.574 122.136 117.408 124.698C120.053 128.393 122.353 132.298 124.63 136.221C125.4 137.548 126.232 140.152 127 141.5C127 141.5 122.5 141 120 141.5C118.72 139.307 119.228 140.849 118.023 138.683C113.42 130.416 108.32 122.466 102.788 114.793C99.2376 109.869 95.5908 105.017 91.8127 100.262C87.6983 95.0843 83.599 89.8948 79.3338 84.8383C75.6187 80.4339 71.8793 76.0492 68.196 71.6177C64.4739 67.1395 60.7335 62.6745 57.1837 58.0556C55.7369 56.1733 54.1814 54.4388 52.1194 53.1626C51.0089 52.4753 50.0283 51.5437 49.1272 50.5627C50.927 52.934 52.9836 55.0705 54.975 57.2832C53.2149 56.3674 51.7904 55.023 50.3052 53.7224C52.1516 58.081 54.7892 62.0164 56.9843 66.1965C54.6165 64.4949 52.1675 62.9337 50.4711 60.5059C52.5669 65.9292 55.7393 70.7172 59.2937 75.5455C56.6188 74.7087 55.0179 72.806 53.2589 71.0945C55.809 75.9407 59.1782 80.1976 62.6198 84.4336C58.1468 81.7474 54.5738 78.0835 51.1965 74.1515C52.4318 77.4619 53.4022 80.8398 53.8888 84.3763C51.6302 80.4849 49.2246 76.6919 47.0693 72.7415C47.4959 74.6612 48.435 76.4097 48.7459 78.4556C46.0628 74.857 42.7708 71.8678 40.7191 67.9462C38.497 63.6986 36.9045 59.2191 35.947 54.5177C35.9043 54.3088 35.8572 54.1004 35.5859 53.8843C35.5316 54.8879 35.4444 55.8918 35.4312 56.896C35.4174 57.9723 35.4212 59.0539 35.5134 60.125C35.6026 61.1675 35.6195 62.2011 35.5211 63.4119C34.3303 62.3596 33.9375 60.9442 33.1871 59.7535C33.8878 64.2372 34.0375 68.8039 35.6393 73.1381C33.7543 71.8986 32.5412 70.1023 31.1118 68.295C31.9384 72.6976 33.9746 76.4683 35.8826 80.3128Z" fill="#1E1918"/>
</svg>
