<svg width="1440" height="323" viewBox="0 0 1440 323" fill="none" xmlns="http://www.w3.org/2000/svg">
<path d="M559.179 143.265L549.252 144.466" stroke="#00FFFB" stroke-width="0.5358" stroke-miterlimit="10"/>
<path d="M138.624 220.136L-54.2972 243.482" stroke="#FF0062" stroke-width="0.6974" stroke-miterlimit="10"/>
<path d="M113.965 227.185L-53.8107 247.488" stroke="#FF0062" stroke-width="0.6974" stroke-miterlimit="10"/>
<path d="M139.595 228.148L-53.3262 251.494" stroke="#FF0062" stroke-width="0.6974" stroke-miterlimit="10"/>
<path d="M140.079 232.152L-52.8426 255.498" stroke="#FF0062" stroke-width="0.6974" stroke-miterlimit="10"/>
<path d="M140.564 236.158L-52.3572 259.504" stroke="#FF0062" stroke-width="0.6974" stroke-miterlimit="10"/>
<path d="M164.879 237.281L-51.8723 263.511" stroke="#FF0062" stroke-width="0.6974" stroke-miterlimit="10"/>
<path d="M145.509 243.689L-51.3878 267.516" stroke="#FF0062" stroke-width="0.6974" stroke-miterlimit="10"/>
<path d="M191.66 242.168L-50.9025 271.521" stroke="#FF0062" stroke-width="0.6974" stroke-miterlimit="10"/>
<path d="M178.247 247.856L-50.4171 275.527" stroke="#FF0062" stroke-width="0.6974" stroke-miterlimit="10"/>
<path d="M167.481 253.222L-49.9333 279.532" stroke="#FF0062" stroke-width="0.6974" stroke-miterlimit="10"/>
<path d="M413.425 170.741L113.942 206.983" stroke="#9021E2" stroke-width="0.6974" stroke-miterlimit="10"/>
<path d="M396.037 176.899L96.5542 213.14" stroke="#9021E2" stroke-width="0.6974" stroke-miterlimit="10"/>
<path d="M414.396 178.753L114.913 214.994" stroke="#9021E2" stroke-width="0.6974" stroke-miterlimit="10"/>
<path d="M414.88 182.757L115.396 218.998" stroke="#9021E2" stroke-width="0.6974" stroke-miterlimit="10"/>
<path d="M415.365 186.762L115.882 223.004" stroke="#9021E2" stroke-width="0.6974" stroke-miterlimit="10"/>
<path d="M355.302 189.886L55.8193 226.127" stroke="#9021E2" stroke-width="0.6974" stroke-miterlimit="10"/>
<path d="M370.676 192.056L71.1925 228.297" stroke="#9021E2" stroke-width="0.6974" stroke-miterlimit="10"/>
<path d="M356.273 197.898L56.7902 234.139" stroke="#9021E2" stroke-width="0.6974" stroke-miterlimit="10"/>
<path d="M352.622 209.35L53.1392 245.591" stroke="#9021E2" stroke-width="0.6974" stroke-miterlimit="10"/>
<path d="M245.274 207.933L-54.2095 244.174" stroke="#9021E2" stroke-width="0.6974" stroke-miterlimit="10"/>
<path d="M245.757 211.938L-53.7258 248.179" stroke="#9021E2" stroke-width="0.6974" stroke-miterlimit="10"/>
<path d="M325.661 206.333L-53.242 252.185" stroke="#9021E2" stroke-width="0.6974" stroke-miterlimit="10"/>
<path d="M234.15 221.472L-52.7566 256.191" stroke="#9021E2" stroke-width="0.6974" stroke-miterlimit="10"/>
<path d="M337.483 217L38 253.241" stroke="#9021E2" stroke-width="0.6974" stroke-miterlimit="10"/>
<path d="M232.296 233.889L-51.3018 268.208" stroke="#9021E2" stroke-width="0.6974" stroke-miterlimit="10"/>
<path d="M248.666 235.97L-50.817 272.212" stroke="#9021E2" stroke-width="0.6974" stroke-miterlimit="10"/>
<path d="M279.592 236.293L-50.334 276.218" stroke="#9021E2" stroke-width="0.6974" stroke-miterlimit="10"/>
<path d="M155.651 255.356L-49.8497 280.225" stroke="#9021E2" stroke-width="0.6974" stroke-miterlimit="10"/>
<path d="M1230.13 110L1026.95 134.588" stroke="#FF73BC" stroke-width="0.5358" stroke-miterlimit="10"/>
<path d="M1206.13 116.97L1002.95 141.557" stroke="#FF73BC" stroke-width="0.5358" stroke-miterlimit="10"/>
<path d="M1206.61 120.976L1025.27 142.921" stroke="#FEED14" stroke-width="0.5358" stroke-miterlimit="10"/>
<path d="M1246.81 120.174L996.635 150.448" stroke="#FEED14" stroke-width="0.5358" stroke-miterlimit="10"/>
<path d="M1207.58 128.985L1004.4 153.573" stroke="#FF73BC" stroke-width="0.5358" stroke-miterlimit="10"/>
<path d="M1208.07 132.991L989 159.502" stroke="#FEED14" stroke-width="0.5358" stroke-miterlimit="10"/>
<path d="M1451.56 92.1762L1248.38 116.764" stroke="#FF73BC" stroke-width="0.5358" stroke-miterlimit="10"/>
<path d="M1452.05 96.1823L1272.03 117.967" stroke="#FF73BC" stroke-width="0.5358" stroke-miterlimit="10"/>
<path d="M1502.18 94L1299 118.588" stroke="#FF73BC" stroke-width="0.5358" stroke-miterlimit="10"/>
<path d="M1502.67 98.0063L1310.74 121.233" stroke="#FF73BC" stroke-width="0.5358" stroke-miterlimit="10"/>
<path d="M1473.36 105.796L1250.32 132.786" stroke="#FF73BC" stroke-width="0.5358" stroke-miterlimit="10"/>
<path d="M1453.99 112.204L1225.65 139.836" stroke="#FF73BC" stroke-width="0.5358" stroke-miterlimit="10"/>
<path d="M1454.47 116.21L1251.29 140.798" stroke="#FF73BC" stroke-width="0.5358" stroke-miterlimit="10"/>
<path d="M1454.96 120.215L1263.68 143.361" stroke="#FF73BC" stroke-width="0.5358" stroke-miterlimit="10"/>
<path d="M1455.44 124.22L1283.36 145.044" stroke="#FF73BC" stroke-width="0.5358" stroke-miterlimit="10"/>
<path d="M1434.75 130.789L1242.15 154.095" stroke="#FF73BC" stroke-width="0.5358" stroke-miterlimit="10"/>
<path d="M1393.18 140L1190 164.588" stroke="#FF73BC" stroke-width="0.5358" stroke-miterlimit="10"/>
<path d="M1393.67 144.006L1190.49 168.594" stroke="#FF73BC" stroke-width="0.5358" stroke-miterlimit="10"/>
<path d="M1485.84 136.799L1239.63 166.592" stroke="#FF73BC" stroke-width="0.5358" stroke-miterlimit="10"/>
<path d="M527.986 161.278L411.833 175.334" stroke="#00FFFB" stroke-width="0.5358" stroke-miterlimit="10"/>
<path d="M511.607 167.325L261.09 197.641" stroke="#00FFFB" stroke-width="0.5358" stroke-miterlimit="10"/>
<path d="M512.09 171.33L308.906 195.918" stroke="#00FFFB" stroke-width="0.5358" stroke-miterlimit="10"/>
<path d="M411.965 187.51L305.42 200.403" stroke="#00FFFB" stroke-width="0.5358" stroke-miterlimit="10"/>
<path d="M581.74 172L364.998 198.229" stroke="#00FFFB" stroke-width="0.5358" stroke-miterlimit="10"/>
<path d="M568.667 177.646L293 211.005" stroke="#00FFFB" stroke-width="0.5358" stroke-miterlimit="10"/>
<path d="M454.46 194.56L251.276 219.148" stroke="#00FFFB" stroke-width="0.5358" stroke-miterlimit="10"/>
<path d="M607.02 181.134L366.452 210.246" stroke="#00FFFB" stroke-width="0.5358" stroke-miterlimit="10"/>
<path d="M514.999 195.363L311.814 219.951" stroke="#00FFFB" stroke-width="0.5358" stroke-miterlimit="10"/>
<path d="M527.396 197.925L324.211 222.513" stroke="#00FFFB" stroke-width="0.5358" stroke-miterlimit="10"/>
<path d="M526.717 200L261 232.155" stroke="#00FFFB" stroke-width="0.5358" stroke-miterlimit="10"/>
<path d="M516.454 207.379L367.86 225.36" stroke="#00FFFB" stroke-width="0.5358" stroke-miterlimit="10"/>
<path d="M482.316 215L253 242.75" stroke="#00FFFB" stroke-width="0.5358" stroke-miterlimit="10"/>
<path d="M487.71 220L218 252.638" stroke="#00FFFB" stroke-width="0.5358" stroke-miterlimit="10"/>
<path d="M503.667 221.118L253.492 251.392" stroke="#00FFFB" stroke-width="0.5358" stroke-miterlimit="10"/>
<path d="M309.378 251L86.9999 277.91" stroke="#00FFFB" stroke-width="0.5358" stroke-miterlimit="10"/>
<path d="M956.686 160L869 170.611" stroke="#00FFFB" stroke-width="0.6974" stroke-miterlimit="10"/>
<path d="M937.992 136.767L836.406 149.06" stroke="#00FFFB" stroke-width="0.6974" stroke-miterlimit="10"/>
<path d="M912.66 143.897L809.093 156.429" stroke="#00FFFB" stroke-width="0.6974" stroke-miterlimit="10"/>
<path d="M913.145 147.902L777.482 164.319" stroke="#00FFFB" stroke-width="0.6974" stroke-miterlimit="10"/>
<path d="M913.631 151.907L797.489 165.962" stroke="#00FFFB" stroke-width="0.6974" stroke-miterlimit="10"/>
<path d="M952.508 151.267L759.587 174.613" stroke="#00FFFB" stroke-width="0.6974" stroke-miterlimit="10"/>
<path d="M627.899 199.845L715.585 189.234" stroke="#FF0062" stroke-width="0.6974" stroke-miterlimit="10"/>
<path d="M661.167 191.756L762.753 179.463" stroke="#FF0062" stroke-width="0.6974" stroke-miterlimit="10"/>
<path d="M686.499 184.626L790.065 172.093" stroke="#FF0062" stroke-width="0.6974" stroke-miterlimit="10"/>
<path d="M686.013 180.62L821.677 164.203" stroke="#FF0062" stroke-width="0.6974" stroke-miterlimit="10"/>
<path d="M870.878 158.745L1058.84 136" stroke="#FF0062" stroke-width="0.6974" stroke-miterlimit="10"/>
<path d="M832 159.385L1024.92 136.039" stroke="#FF0062" stroke-width="0.6974" stroke-miterlimit="10"/>
<path d="M641.308 199.581L722.777 189.722" stroke="#FFFE1F" stroke-width="0.6016" stroke-miterlimit="10"/>
<path d="M609.301 199.391L786.157 177.989" stroke="#FFFE1F" stroke-width="0.6016" stroke-miterlimit="10"/>
<path d="M590.392 197.615L785.672 173.983" stroke="#FFFE1F" stroke-width="0.6016" stroke-miterlimit="10"/>
<path d="M571.485 195.839L809.75 167.006" stroke="#FFFE1F" stroke-width="0.6016" stroke-miterlimit="10"/>
<path d="M607.847 187.374L766.28 168.202" stroke="#FFFE1F" stroke-width="0.6016" stroke-miterlimit="10"/>
<path d="M153.839 162.097L134.646 164.419" stroke="#FF73BC" stroke-width="0.5358" stroke-miterlimit="10"/>
<path d="M514.171 148.711L494.978 151.034" stroke="#00FFFB" stroke-width="0.5358" stroke-miterlimit="10"/>
</svg>
