<svg width="592" height="53" viewBox="0 0 592 53" fill="none" xmlns="http://www.w3.org/2000/svg">
<path d="M-1.05359 45.0626L210.819 45.0626" stroke="#FEED14" stroke-width="0.6974" stroke-miterlimit="10"/>
<path d="M-37.9999 38.8522L108.213 38.8522" stroke="#FEED14" stroke-width="0.6974" stroke-miterlimit="10"/>
<path d="M-7.21887 32.642L210.818 32.642" stroke="#FEED14" stroke-width="0.6974" stroke-miterlimit="10"/>
<path d="M147.717 51.8313L351.902 51.8313" stroke="#FF00A8" stroke-width="0.6016" stroke-miterlimit="10"/>
<path d="M68.7114 45.621L511.97 45.621" stroke="#FF00A8" stroke-width="0.6016" stroke-miterlimit="10"/>
<path d="M22.5356 39.4106L511.97 39.4106" stroke="#FF00A8" stroke-width="0.6016" stroke-miterlimit="10"/>
<path d="M-23.6403 33.2002L573.53 33.2002" stroke="#FF00A8" stroke-width="0.6016" stroke-miterlimit="10"/>
<path d="M68.7114 26.9932L465.795 26.9932" stroke="#FF00A8" stroke-width="0.6016" stroke-miterlimit="10"/>
<path d="M321.121 20.7817L465.794 20.7817" stroke="#FF00A8" stroke-width="0.6016" stroke-miterlimit="10"/>
<path d="M112.83 14.5714L388.84 14.5714" stroke="#FF00A8" stroke-width="0.6016" stroke-miterlimit="10"/>
<path d="M344.152 32.0471L407.73 32.0471" stroke="#00FFFB" stroke-width="0.5358" stroke-miterlimit="10"/>
<path d="M353.384 25.8368L490.507 25.8368" stroke="#00FFFB" stroke-width="0.5358" stroke-miterlimit="10"/>
<path d="M353.384 19.6276L464.599 19.6276" stroke="#00FFFB" stroke-width="0.5358" stroke-miterlimit="10"/>
<path d="M255.455 0.999756L376.53 0.999756" stroke="#00FFFB" stroke-width="0.5358" stroke-miterlimit="10"/>
<path d="M150.797 0.999756L171.317 0.999756" stroke="#00FFFB" stroke-width="0.5358" stroke-miterlimit="10"/>
<path d="M544.802 45.3536L592.001 45.3536" stroke="#FF00A8" stroke-width="0.6016" stroke-miterlimit="10"/>
</svg>
