<svg width="512" height="158" viewBox="0 0 512 158" fill="none" xmlns="http://www.w3.org/2000/svg">
<path d="M-18.2031 12.6133L170.775 50.3231" stroke="#FEED14" stroke-width="0.6974" stroke-miterlimit="10"/>
<path d="M-52.2635 11.5764L78.1494 37.5998" stroke="#FEED14" stroke-width="0.6974" stroke-miterlimit="10"/>
<path d="M-25.9141 22.5947L168.562 61.4016" stroke="#FEED14" stroke-width="0.6974" stroke-miterlimit="10"/>
<path d="M115.697 33.0549L297.818 69.3964" stroke="#FF00A8" stroke-width="0.6016" stroke-miterlimit="10"/>
<path d="M44.1212 24.5315L439.481 103.424" stroke="#FF00A8" stroke-width="0.6016" stroke-miterlimit="10"/>
<path d="M1.8302 21.8528L438.376 108.964" stroke="#FF00A8" stroke-width="0.6016" stroke-miterlimit="10"/>
<path d="M-40.4608 19.1741L492.179 125.46" stroke="#FF00A8" stroke-width="0.6016" stroke-miterlimit="10"/>
<path d="M40.8068 41.1477L394.981 111.822" stroke="#FF00A8" stroke-width="0.6016" stroke-miterlimit="10"/>
<path d="M264.834 91.6116L393.874 117.361" stroke="#FF00A8" stroke-width="0.6016" stroke-miterlimit="10"/>
<path d="M77.9474 60.0784L324.131 109.203" stroke="#FF00A8" stroke-width="0.6016" stroke-miterlimit="10"/>
<path d="M287.383 85.6621L344.091 96.9779" stroke="#00FFFB" stroke-width="0.5358" stroke-miterlimit="10"/>
<path d="M294.51 92.8447L416.815 117.25" stroke="#00FFFB" stroke-width="0.5358" stroke-miterlimit="10"/>
<path d="M293.406 98.3828L392.604 118.177" stroke="#00FFFB" stroke-width="0.5358" stroke-miterlimit="10"/>
<path d="M202.742 97.5684L310.734 119.118" stroke="#00FFFB" stroke-width="0.5358" stroke-miterlimit="10"/>
<path d="M109.395 78.9404L127.698 82.5927" stroke="#00FFFB" stroke-width="0.5358" stroke-miterlimit="10"/>
<path d="M468.717 109.507L510.815 117.907" stroke="#FF00A8" stroke-width="0.6016" stroke-miterlimit="10"/>
</svg>
