<svg width="1440" height="271" viewBox="0 0 1440 271" fill="none" xmlns="http://www.w3.org/2000/svg">
<path d="M884.23 123.303L1095.68 91.6433" stroke="#00FFFB" stroke-width="0.5358" stroke-miterlimit="10"/>
<path d="M915.529 122.697L1371.58 54.4128" stroke="#00FFFB" stroke-width="0.5358" stroke-miterlimit="10"/>
<path d="M692.238 160.505L1062.12 105.122" stroke="#00FFFB" stroke-width="0.5358" stroke-miterlimit="10"/>
<path d="M1167.56 91.8884L1361.52 62.8468" stroke="#00FFFB" stroke-width="0.5358" stroke-miterlimit="10"/>
<path d="M892.642 138.362L1287.21 79.2838" stroke="#00FFFB" stroke-width="0.5358" stroke-miterlimit="10"/>
<path d="M917.921 138.656L1419.75 63.5169" stroke="#F7DB13" stroke-width="0.5358" stroke-miterlimit="10"/>
<path d="M1026.96 126.41L1396.84 71.0273" stroke="#00FFFB" stroke-width="0.5358" stroke-miterlimit="10"/>
<path d="M910.77 147.599L1348.71 82.0266" stroke="#00FFFB" stroke-width="0.5358" stroke-miterlimit="10"/>
<path d="M780.464 170.859L1150.35 115.477" stroke="#F7DB13" stroke-width="0.5358" stroke-miterlimit="10"/>
<path d="M733.254 183.01L1103.14 127.627" stroke="#F7DB13" stroke-width="0.5358" stroke-miterlimit="10"/>
<path d="M862.462 165.936L1346.18 93.5081" stroke="#F7DB13" stroke-width="0.5358" stroke-miterlimit="10"/>
<path d="M921.503 162.599L1192.01 122.096" stroke="#00FFFB" stroke-width="0.5358" stroke-miterlimit="10"/>
<path d="M874.535 173.711L1291.99 111.205" stroke="#00FFFB" stroke-width="0.5358" stroke-miterlimit="10"/>
<path d="M979.094 161.384L1470.08 87.8678" stroke="#00FFFB" stroke-width="0.5358" stroke-miterlimit="10"/>
<path d="M949.218 170.688L1404.64 102.497" stroke="#00FFFB" stroke-width="0.5358" stroke-miterlimit="10"/>
<path d="M1313.94 134.312L1718.77 73.6979" stroke="#00FFFB" stroke-width="0.5358" stroke-miterlimit="10"/>
<path d="M27.139 225.954L217.876 198.495" stroke="#FEED14" stroke-width="0.6974" stroke-miterlimit="10"/>
<path d="M-5.3175 236.334L126.309 217.385" stroke="#FEED14" stroke-width="0.6974" stroke-miterlimit="10"/>
<path d="M23.1985 237.936L219.485 209.678" stroke="#FEED14" stroke-width="0.6974" stroke-miterlimit="10"/>
<path d="M160.191 200.58L344.007 174.117" stroke="#FEED14" stroke-width="0.6016" stroke-miterlimit="10"/>
<path d="M89.8713 216.411L488.912 158.964" stroke="#FEED14" stroke-width="0.6016" stroke-miterlimit="10"/>
<path d="M49.1069 227.986L489.717 164.554" stroke="#FEED14" stroke-width="0.6016" stroke-miterlimit="10"/>
<path d="M8.34277 239.562L545.941 162.168" stroke="#FEED14" stroke-width="0.6016" stroke-miterlimit="10"/>
<path d="M92.2842 233.181L449.755 181.718" stroke="#FEED14" stroke-width="0.6016" stroke-miterlimit="10"/>
<path d="M320.32 206.059L450.562 187.309" stroke="#FEED14" stroke-width="0.6016" stroke-miterlimit="10"/>
<path d="M133.614 238.645L382.089 202.873" stroke="#FEED14" stroke-width="0.6016" stroke-miterlimit="10"/>
<path d="M339.594 192.933L396.83 184.693" stroke="#00FFFB" stroke-width="0.5358" stroke-miterlimit="10"/>
<path d="M348.711 197.326L472.155 179.555" stroke="#00FFFB" stroke-width="0.5358" stroke-miterlimit="10"/>
<path d="M349.514 202.917L449.635 188.503" stroke="#00FFFB" stroke-width="0.5358" stroke-miterlimit="10"/>
<path d="M263.768 232.377L372.765 216.686" stroke="#00FFFB" stroke-width="0.5358" stroke-miterlimit="10"/>
<path d="M169.552 245.942L188.025 243.283" stroke="#00FFFB" stroke-width="0.5358" stroke-miterlimit="10"/>
<path d="M518.503 154.949L560.993 148.832" stroke="#FEED14" stroke-width="0.6016" stroke-miterlimit="10"/>
</svg>
