<svg width="523" height="47" viewBox="0 0 523 47" fill="none" xmlns="http://www.w3.org/2000/svg">
<path d="M-16.3965 6.55371L176.307 6.55371" stroke="#FEED14" stroke-width="0.6974" stroke-miterlimit="10"/>
<path d="M-50 12.2021L82.984 12.2021" stroke="#FEED14" stroke-width="0.6974" stroke-miterlimit="10"/>
<path d="M-22.0039 17.8506L176.306 17.8506" stroke="#FEED14" stroke-width="0.6974" stroke-miterlimit="10"/>
<path d="M118.914 0.397461L304.626 0.397461" stroke="#FF00A8" stroke-width="0.6016" stroke-miterlimit="10"/>
<path d="M47.0566 6.0459L450.211 6.0459" stroke="#FF00A8" stroke-width="0.6016" stroke-miterlimit="10"/>
<path d="M5.05859 11.6943L450.211 11.6943" stroke="#FF00A8" stroke-width="0.6016" stroke-miterlimit="10"/>
<path d="M-36.9395 17.343L506.201 17.343" stroke="#FF00A8" stroke-width="0.6016" stroke-miterlimit="10"/>
<path d="M47.0566 22.9883L408.213 22.9883" stroke="#FF00A8" stroke-width="0.6016" stroke-miterlimit="10"/>
<path d="M276.629 28.6377L408.213 28.6377" stroke="#FF00A8" stroke-width="0.6016" stroke-miterlimit="10"/>
<path d="M87.1836 34.2861L338.221 34.2861" stroke="#FF00A8" stroke-width="0.6016" stroke-miterlimit="10"/>
<path d="M297.576 18.3916L355.402 18.3916" stroke="#00FFFB" stroke-width="0.5358" stroke-miterlimit="10"/>
<path d="M305.973 24.04L430.689 24.04" stroke="#00FFFB" stroke-width="0.5358" stroke-miterlimit="10"/>
<path d="M305.973 29.6875L407.126 29.6875" stroke="#00FFFB" stroke-width="0.5358" stroke-miterlimit="10"/>
<path d="M216.904 46.6299L327.025 46.6299" stroke="#00FFFB" stroke-width="0.5358" stroke-miterlimit="10"/>
<path d="M121.715 46.6299L140.379 46.6299" stroke="#00FFFB" stroke-width="0.5358" stroke-miterlimit="10"/>
<path d="M480.072 6.28906L523.001 6.28906" stroke="#FF00A8" stroke-width="0.6016" stroke-miterlimit="10"/>
</svg>
